<svg xmlns="http://www.w3.org/2000/svg" width="60" height="60" viewBox="0 0 60 60">
  <defs>
    <style>
      .cls-1 {
        fill: #5160ff;
      }

      .cls-2, .cls-3 {
        fill: none;
      }

      .cls-2 {
        stroke: #5160ff;
        stroke-width: 2px;
      }
    </style>
  </defs>
  <g id="组_136" data-name="组 136" transform="translate(-434 -751.764)">
    <g id="组_35" data-name="组 35" transform="translate(1887.909 611.37)">
      <g id="组_34" data-name="组 34" transform="translate(-1447.972 150.34)">
        <g id="组_23" data-name="组 23" transform="translate(10.225 7.613)">
          <g id="组_20" data-name="组 20" transform="translate(0 9.331)">
            <path id="路径_77" data-name="路径 77" class="cls-1" d="M187.893,236.039a.72.72,0,0,1-.719-.719v-1.588a2.323,2.323,0,0,1,1.992-2.291l3.085-.433a1.291,1.291,0,0,1,.8.144,3.666,3.666,0,0,1,.746.7c.429.466,1.077,1.171,1.511,1.171s1.082-.7,1.511-1.171a3.664,3.664,0,0,1,.747-.7,1.288,1.288,0,0,1,.8-.143l3.085.433a2.323,2.323,0,0,1,1.992,2.291V235.2a.376.376,0,0,1-.376.376c-.207,0-.876-.124-.876-.331C198.714,234.548,188.1,236.039,187.893,236.039Z" transform="translate(-187.174 -230.995)"/>
          </g>
          <g id="组_21" data-name="组 21" transform="translate(4.186)">
            <path id="路径_78" data-name="路径 78" class="cls-1" d="M214.027,190.99a4.132,4.132,0,0,0-.28-1.968.394.394,0,0,0-.072.042,3.842,3.842,0,0,1-2.578,1,2.874,2.874,0,0,1-1.511-.463,2.32,2.32,0,0,0-.754-.314,3.422,3.422,0,0,0-.5,1.869.394.394,0,0,1-.37.36.4.4,0,0,1-.417-.314c-.474-2.183-.329-3.73.419-4.474a1.685,1.685,0,0,1,1.65-.4,9.628,9.628,0,0,0,3.439-.012c1.159-.155,2.16-.289,2.513.566.509,1.237-.682,3.976-.82,4.285Zm-5.652-2.3Z" transform="translate(-207.272 -186.194)"/>
          </g>
          <g id="组_22" data-name="组 22" transform="translate(4.485 4.81)">
            <path id="路径_79" data-name="路径 79" class="cls-1" d="M212.284,214.562a3.268,3.268,0,0,1-2.812-2.057,7.069,7.069,0,0,1-.763-2.921l.749-.061a6.4,6.4,0,0,0,.678,2.631c.595,1.124,1.349,1.68,2.226,1.656a2.525,2.525,0,0,0,2.247-1.656,6.232,6.232,0,0,0,.556-2.867l.751,0a6.932,6.932,0,0,1-.643,3.214,3.249,3.249,0,0,1-2.911,2.056Z" transform="translate(-208.709 -209.287)"/>
          </g>
        </g>
        <g id="组_27" data-name="组 27" transform="translate(22.251)">
          <g id="组_24" data-name="组 24" transform="translate(4.902 4.543)">
            <path id="路径_80" data-name="路径 80" class="cls-1" d="M272.291,182.806l-.11,0c-1.63.052-3.056-.965-4.094-2.926a9.658,9.658,0,0,1-1.062-4.5v-1.633l.055-.09c.484-.8,3.044-1.078,5.089-1.078.531,0,5.189.04,5.189,1.408v1.393a9.655,9.655,0,0,1-1.062,4.5C275.282,181.8,273.9,182.806,272.291,182.806Zm-.11-.753c1.386.033,2.544-.811,3.452-2.527a8.907,8.907,0,0,0,.974-4.153v-1.35c-.224-.247-1.735-.7-4.438-.7-2.572,0-4.063.411-4.392.663v1.387a8.907,8.907,0,0,0,.974,4.153C269.658,181.243,270.814,182.088,272.181,182.054Z" transform="translate(-267.025 -172.573)"/>
          </g>
          <g id="组_25" data-name="组 25" transform="translate(4.32)">
            <path id="路径_81" data-name="路径 81" class="cls-1" d="M264.951,157.311l-.119-.259c-1.085-2.529-.513-3.988.158-4.767,1.046-1.215,3.128-1.631,5.305-1.061a10.071,10.071,0,0,0,5.091-.422.609.609,0,0,1,.512.042.6.6,0,0,1,.3.412,8.335,8.335,0,0,1-1.084,5.609l-.12.186-.533-.031-.064-.251c-.189-.245-1.7-.71-4.441-.71C267.381,156.057,265.89,156.468,264.951,157.311Z" transform="translate(-264.226 -150.763)"/>
          </g>
          <g id="组_26" data-name="组 26" transform="translate(0 14.63)">
            <path id="路径_82" data-name="路径 82" class="cls-1" d="M255.95,227.572c-1.055,0-2.128-.5-3.6-.384a19.061,19.061,0,0,1-2.671-.112c-.179-.1-1.4-2.325-1.613-2.3l-1.369-.924a.376.376,0,0,1-.1-.744l5.232-2.089a1.737,1.737,0,0,1,1.074.192,5.37,5.37,0,0,1,1.062,1c.7.759,1.653,1.8,2.377,1.8s1.68-1.039,2.377-1.8a5.384,5.384,0,0,1,1.062-1,1.738,1.738,0,0,1,1.074-.192l.043.009,4.022,1.053a.376.376,0,1,1-.19.727l-2.14,1.969a14.119,14.119,0,0,0-1.859,1.241c-.184.1-2.208,2.611-2.546,2.979C257.349,229.908,257.005,227.572,255.95,227.572Z" transform="translate(-246.272 -221.005)"/>
          </g>
        </g>
        <g id="组_28" data-name="组 28" transform="translate(5.066 13.555)">
          <path id="路径_83" data-name="路径 83" class="cls-1" d="M170.214,235.491a.385.385,0,0,1-.25-.092l-11.52-9.912a.373.373,0,0,1-.132-.278c0-.107-.413-.228-.333-.3l3.346-3.112a7.913,7.913,0,0,1,5.612-2.052l16.686-.021.484,0a2.727,2.727,0,0,1,2.547,1.8l9.036-8.639a3.531,3.531,0,0,1,4.132-.521,3.412,3.412,0,0,1,1.7,2.35,3.371,3.371,0,0,1-.733,2.793l-11.1,12.4a12.584,12.584,0,0,1-9.376,4.17h-6.9c-1.584,0-1.78.437-3.123,1.263l.119.093A.386.386,0,0,1,170.214,235.491Zm-11.623-10.3,10.984,9.455-.357.054a7.128,7.128,0,0,1,4.2-1.378h6.9a11.816,11.816,0,0,0,8.8-3.915l11.088-12.393a2.623,2.623,0,0,0,.564-2.169,2.661,2.661,0,0,0-1.326-1.833,2.754,2.754,0,0,0-3.223.406l-9.519,9.1a.386.386,0,0,1-.4.084.376.376,0,0,1-.25-.313,1.993,1.993,0,0,0-1.952-1.817l-.481,0-16.7.021a7.158,7.158,0,0,0-5.082,1.854Z" transform="translate(-157.969 -211.921)"/>
        </g>
        <g id="组_29" data-name="组 29" transform="translate(0 25.372)">
          <path id="路径_84" data-name="路径 84" class="cls-1" d="M143.379,290.673a1.785,1.785,0,0,1-1.186-.449l-12.056-10.679a1.79,1.79,0,0,1-.023-2.66l1.227-1.124a2.722,2.722,0,0,1,3.622-.05l10.712,9.283a2.723,2.723,0,0,1,.143,3.982l-1.173,1.174A1.786,1.786,0,0,1,143.379,290.673Zm-11.53-14.359-1.227,1.125a1.039,1.039,0,0,0,.013,1.543l12.056,10.679a1.04,1.04,0,0,0,1.424-.043l1.173-1.174a1.972,1.972,0,0,0-.1-2.883l-10.712-9.283a1.971,1.971,0,0,0-2.623.036Z" transform="translate(-129.534 -275.044)"/>
        </g>
        <g id="组_30" data-name="组 30" transform="translate(14.941 25.914)">
          <path id="路径_85" data-name="路径 85" class="cls-1" d="M213.322,273.407h-3.2a.376.376,0,0,1,0-.751h3.2a.376.376,0,0,1,0,.751Z" transform="translate(-209.751 -272.656)"/>
        </g>
        <g id="组_31" data-name="组 31" transform="translate(20.945 24.693)">
          <path id="路径_86" data-name="路径 86" class="cls-1" d="M248.011,268.8h-9.869a.376.376,0,1,1,0-.751h9.869a1.925,1.925,0,0,0,1.67-1.018.376.376,0,1,1,.658.364A2.677,2.677,0,0,1,248.011,268.8Z" transform="translate(-237.766 -266.837)"/>
        </g>
        <g id="组_32" data-name="组 32" transform="translate(12.149 35.753)">
          <path id="路径_87" data-name="路径 87" class="cls-1" d="M189.117,328.765a1.372,1.372,0,1,1,1.372-1.372A1.373,1.373,0,0,1,189.117,328.765Zm0-1.992a.62.62,0,1,0,.62.62A.621.621,0,0,0,189.117,326.773Z" transform="translate(-187.745 -326.022)"/>
        </g>
        <g id="组_33" data-name="组 33" transform="translate(7.568 32.006)">
          <path id="路径_88" data-name="路径 88" class="cls-1" d="M169.207,310.634a.376.376,0,0,1-.243-.089l-3.524-2.988a.376.376,0,0,1,.486-.573l3.524,2.988a.376.376,0,0,1-.243.662Z" transform="translate(-165.307 -306.895)"/>
        </g>
        <line id="直线_14" data-name="直线 14" class="cls-2" x2="4.395" transform="translate(16.196 31.858)"/>
        <line id="直线_15" data-name="直线 15" class="cls-2" y2="5.128" transform="translate(18.408 29.312)"/>
      </g>
    </g>
    <rect id="矩形_49" data-name="矩形 49" class="cls-3" width="60" height="60" transform="translate(434 751.764)"/>
  </g>
</svg>
