<svg xmlns="http://www.w3.org/2000/svg" width="60" height="59.113" viewBox="0 0 60 59.113">
  <defs>
    <style>
      .cls-1 {
        fill: #5160ff;
      }

      .cls-2, .cls-3 {
        fill: none;
      }

      .cls-4, .cls-5 {
        stroke: none;
      }

      .cls-5 {
        fill: #5160ff;
      }
    </style>
  </defs>
  <g id="组_214" data-name="组 214" transform="translate(-550 -762)">
    <g id="组_36" data-name="组 36" transform="translate(559 775.751)">
      <path id="路径_90" data-name="路径 90" class="cls-1" d="M193.029,269.32v-9.17l9.191-4.589-.018,9.171Zm-11.462-16.048-10.318,4.585-10.335-4.585,10.335-4.585,10.318,4.585,10.317-4.585,10.335,4.585-10.335,4.586ZM170.1,269.32l-9.172-4.586-.018-9.174,9.189,4.586v9.171Zm-9.19-2.293Zm20.633-11.466h.036v.018l9.152,4.567v9.171l-9.169-4.583L172.4,269.32v-9.17l9.152-4.567v-.022Zm0,11.464h.036v.018l9.152,4.572v9.171l-9.169-4.588-9.171,4.586v-9.168l9.152-4.567v-.018Z" transform="translate(-160.914 -248.686)"/>
      <path id="路径_95" data-name="路径 95" class="cls-1" d="M193.029,269.32v-9.17l9.191-4.589-.018,9.171Zm-11.462-16.048-10.318,4.585-10.335-4.585,10.335-4.585,10.318,4.585,10.317-4.585,10.335,4.585-10.335,4.586ZM170.1,269.32l-9.172-4.586-.018-9.174,9.189,4.586v9.171Zm-9.19-2.293Zm20.633-11.466h.036v.018l9.152,4.567v9.171l-9.169-4.583L172.4,269.32v-9.17l9.152-4.567v-.022Zm0,11.464h.036v.018l9.152,4.572v9.171l-9.169-4.588-9.171,4.586v-9.168l9.152-4.567v-.018Z" transform="translate(-160.914 -248.686)"/>
      <g id="路径_91" data-name="路径 91" class="cls-2" transform="translate(-10.935 -21.703)">
        <path class="cls-4" d="M10.936,39.43,20.841,44.3v9.5l-9.905-4.621Z"/>
        <path class="cls-5" d="M 11.93554306030273 41.03614044189453 L 11.93554306030273 48.54532623291016 L 19.84078216552734 52.23365783691406 L 19.84078216552734 44.9250602722168 L 11.93554306030273 41.03614044189453 M 10.93554306030273 39.42974853515625 L 20.84078216552734 44.30254745483398 L 20.84078216552734 53.80371856689453 L 10.93554306030273 49.18224716186523 L 10.93554306030273 39.42974853515625 Z"/>
      </g>
      <g id="路径_94" data-name="路径 94" class="cls-2" transform="translate(-10.935 -21.703)">
        <path class="cls-4" d="M10.936,39.43,20.841,44.3v9.5l-9.905-4.621Z"/>
        <path class="cls-5" d="M 11.93554306030273 41.03614044189453 L 11.93554306030273 48.54532623291016 L 19.84078216552734 52.23365783691406 L 19.84078216552734 44.9250602722168 L 11.93554306030273 41.03614044189453 M 10.93554306030273 39.42974853515625 L 20.84078216552734 44.30254745483398 L 20.84078216552734 53.80371856689453 L 10.93554306030273 49.18224716186523 L 10.93554306030273 39.42974853515625 Z"/>
      </g>
      <g id="路径_92" data-name="路径 92" class="cls-2" transform="translate(20.524 -21.703)">
        <path class="cls-4" d="M20.841,39.43,10.936,44.3v9.5l9.905-4.621Z"/>
        <path class="cls-5" d="M 19.84078216552734 41.03614044189453 L 11.93554306030273 44.9250602722168 L 11.93554306030273 52.23365783691406 L 19.84078216552734 48.54532623291016 L 19.84078216552734 41.03614044189453 M 20.84078216552734 39.42974853515625 L 20.84078216552734 49.18224716186523 L 10.93554306030273 53.80371856689453 L 10.93554306030273 44.30254745483398 L 20.84078216552734 39.42974853515625 Z"/>
      </g>
      <g id="路径_93" data-name="路径 93" class="cls-2" transform="translate(20.524 -21.703)">
        <path class="cls-4" d="M20.841,39.43,10.936,44.3v9.5l9.905-4.621Z"/>
        <path class="cls-5" d="M 19.84078216552734 41.03614044189453 L 11.93554306030273 44.9250602722168 L 11.93554306030273 52.23365783691406 L 19.84078216552734 48.54532623291016 L 19.84078216552734 41.03614044189453 M 20.84078216552734 39.42974853515625 L 20.84078216552734 49.18224716186523 L 10.93554306030273 53.80371856689453 L 10.93554306030273 44.30254745483398 L 20.84078216552734 39.42974853515625 Z"/>
      </g>
    </g>
    <g id="组_213" data-name="组 213">
      <rect id="矩形_50" data-name="矩形 50" class="cls-3" width="60" height="59.113" transform="translate(550 762)"/>
    </g>
  </g>
</svg>
