<svg id="组_140" data-name="组 140" xmlns="http://www.w3.org/2000/svg" width="60" height="59.358" viewBox="0 0 60 59.358">
  <defs>
    <style>
      .cls-1 {
        fill: #5360fc;
      }

      .cls-2 {
        fill: none;
      }
    </style>
  </defs>
  <g id="组_105" data-name="组 105" transform="translate(9.12 12.279)">
    <path id="路径_99" data-name="路径 99" class="cls-1" d="M0,938.667m1.412,0H37.406q1.412,0,1.412,1.511v.755q0,1.511-1.412,1.511H1.412Q0,942.444,0,940.933v-.755Q0,938.667,1.412,938.667Z" transform="translate(0 -906.164)"/>
    <g id="组_104" data-name="组 104">
      <path id="路径_97" data-name="路径 97" class="cls-1" d="M172.178,356.44h2.644a1.511,1.511,0,0,1,1.511,1.511v9.819h-5.665V357.95A1.511,1.511,0,0,1,172.178,356.44Zm10.386-7.553h2.644a1.511,1.511,0,0,1,1.511,1.511v17.373h-5.665V350.4A1.511,1.511,0,0,1,182.563,348.886Zm10.386-7.553h2.644a1.511,1.511,0,0,1,1.511,1.511v24.926h-5.665V342.844a1.511,1.511,0,0,1,1.511-1.511Z" transform="translate(-164.533 -335.266)"/>
      <path id="路径_98" data-name="路径 98" class="cls-1" d="M0,170.667m1.511,0h.755q1.511,0,1.511,1.451V205.5q0,1.451-1.511,1.451H1.511Q0,206.947,0,205.5V172.118q0-1.451,1.511-1.451Z" transform="translate(0 -170.667)"/>
      <path id="路径_100" data-name="路径 100" class="cls-1" d="M725.437,559.879l1.19-4.317a1.327,1.327,0,0,1,1.62-.91l4.439,1.158a2.628,2.628,0,0,1,1.6,1.2l3.918,6.6a2.534,2.534,0,0,1-.969,3.514l-4.009,2.251a2.687,2.687,0,0,1-3.614-.94l-3.916-6.6a2.511,2.511,0,0,1-.264-1.953Zm3.85.068a1.609,1.609,0,1,0-1.654-1.607A1.631,1.631,0,0,0,729.287,559.947Z" transform="translate(-695.97 -539.1)"/>
      <path id="路径_101" data-name="路径 101" class="cls-1" d="M21.945,1.289H15.419c-.593.008-1.085-.279-1.1-.644.014-.365.507-.653,1.1-.645h9.914c1.065,0,1.511.8.648,1.166L1.747,11.477A1.66,1.66,0,0,1,.21,11.334a.462.462,0,0,1-.2-.482.694.694,0,0,1,.438-.418L21.945,1.289Z" transform="translate(4.646 4.135) rotate(-9)"/>
    </g>
  </g>
  <rect id="矩形_52" data-name="矩形 52" class="cls-2" width="60" height="59.358"/>
</svg>
