<?xml version="1.0" standalone="no"?><!DOCTYPE svg PUBLIC "-//W3C//DTD SVG 1.1//EN" "http://www.w3.org/Graphics/SVG/1.1/DTD/svg11.dtd"><svg t="1653043884949" class="icon" viewBox="0 0 1024 1024" version="1.1" xmlns="http://www.w3.org/2000/svg" p-id="3685" xmlns:xlink="http://www.w3.org/1999/xlink" width="100" height="100"><defs><style type="text/css">@font-face { font-family: feedback-iconfont; src: url("//at.alicdn.com/t/font_1031158_u69w8yhxdu.woff2?t=1630033759944") format("woff2"), url("//at.alicdn.com/t/font_1031158_u69w8yhxdu.woff?t=1630033759944") format("woff"), url("//at.alicdn.com/t/font_1031158_u69w8yhxdu.ttf?t=1630033759944") format("truetype"); }
</style></defs><path d="M0 0h1024v1024H0z" fill="#FFFFFF" p-id="3686"></path><path d="M574.752 162.176l-22.624-22.624 22.624 22.624z m319.168 319.488l-22.656-22.624a30.272 30.272 0 0 0-0.896 0.96l23.52 21.664zM512 896l-23.52 21.696a32 32 0 0 0 47.04 0L512 896zM130.112 162.176l22.624 22.624-22.624-22.624z m0 319.488l23.52-21.696-0.896-0.928-22.624 22.624zM512 225.024l-22.624 22.592a32 32 0 0 0 45.28 0L512 224.96z m-62.752-62.848l-22.656 22.624 22.656-22.624z m148.16 22.624a193.504 193.504 0 0 1 273.856 0l45.28-45.248a257.504 257.504 0 0 0-364.416 0l45.28 45.248z m273.856 0a194.112 194.112 0 0 1 0 274.24l45.28 45.248a258.112 258.112 0 0 0 0-364.736l-45.28 45.248z m-0.896 275.2L488.48 874.304l47.04 43.392L917.44 503.36l-47.04-43.392zM107.456 139.52a258.112 258.112 0 0 0 0 364.736l45.28-45.248a194.112 194.112 0 0 1 0-274.24L107.456 139.52zM106.56 503.36l381.92 414.336 47.04-43.392L153.632 460 106.56 503.36zM552.128 139.552l-62.784 62.816 45.28 45.248 62.784-62.816-45.28-45.248z m-80.256 0a257.504 257.504 0 0 0-364.416 0l45.28 45.248a193.504 193.504 0 0 1 273.856 0l45.28-45.248z m62.752 62.816l-62.72-62.816-45.312 45.248 62.784 62.816 45.28-45.248z" p-id="3687"></path></svg>