<?xml version="1.0" standalone="no"?><!DOCTYPE svg PUBLIC "-//W3C//DTD SVG 1.1//EN" "http://www.w3.org/Graphics/SVG/1.1/DTD/svg11.dtd"><svg class="icon" width="100px" height="100.00px" viewBox="0 0 1024 1024" version="1.1" xmlns="http://www.w3.org/2000/svg"><path d="M644.288 515.648A64 64 0 0 0 665.6 640h123.712a149.312 149.312 0 0 1 149.376 149.312v64c0 47.168-38.208 85.376-85.376 85.376H170.688a85.312 85.312 0 0 1-85.376-85.376v-64A149.312 149.312 0 0 1 234.688 640H358.4a64 64 0 0 0 29.376-120.896 234.688 234.688 0 1 1 256.512-5.248v1.792z m-36.16-54.592a170.688 170.688 0 1 0-188.16 2.752A128 128 0 0 1 358.4 704H234.688c-47.168 0-85.376 38.208-85.376 85.312v64a21.312 21.312 0 0 0 21.376 21.376h682.624a21.312 21.312 0 0 0 21.376-21.376v-64c0-47.104-38.208-85.312-85.376-85.312H665.6a128 128 0 0 1-85.312-223.36V480l2.56-1.728c6.784-5.76 14.08-10.752 21.824-14.912l3.456-2.368z" /></svg>