<?xml version="1.0" standalone="no"?><!DOCTYPE svg PUBLIC "-//W3C//DTD SVG 1.1//EN" "http://www.w3.org/Graphics/SVG/1.1/DTD/svg11.dtd"><svg class="icon" width="100px" height="99.32px" viewBox="0 0 1031 1024" version="1.1" xmlns="http://www.w3.org/2000/svg"><path d="M512.832 989.888c-15.68 0-31.232-4.096-45.184-12.16L131.84 784.064a91.136 91.136 0 0 1-45.056-78.208V318.272c0-31.872 17.28-61.952 45.056-78.144L467.648 46.208a89.856 89.856 0 0 1 90.24 0l335.552 193.6c27.84 16.192 45.056 46.08 45.056 78.144v182.976a25.6 25.6 0 0 1-51.008 0.32V318.272a39.296 39.296 0 0 0-19.648-33.92L532.288 90.624a38.72 38.72 0 0 0-38.912 0L157.504 284.352a39.488 39.488 0 0 0-19.456 33.92v387.584a39.68 39.68 0 0 0 19.648 33.984l335.552 193.536c12.096 7.04 26.944 7.04 38.912 0l107.008-61.76a25.664 25.664 0 0 1 25.6 44.352l-107.008 61.76c-13.696 8.064-29.376 12.16-44.928 12.16zM512.832 542.528a25.152 25.152 0 0 1-12.416-3.2l-365.44-203.456a25.6 25.6 0 1 1 24.96-44.736l365.376 203.648a25.664 25.664 0 0 1 9.92 34.816 26.048 26.048 0 0 1-22.4 12.928zM512.832 542.528a25.472 25.472 0 0 1-22.336-13.12 25.664 25.664 0 0 1 9.92-34.816l366.912-204.48a25.664 25.664 0 0 1 34.816 9.92 25.664 25.664 0 0 1-9.92 34.816L525.312 539.328a25.6 25.6 0 0 1-12.48 3.2zM512.832 956.608a25.6 25.6 0 0 1-25.6-25.6V517.312a25.6 25.6 0 1 1 51.2 0v413.824a25.6 25.6 0 0 1-25.6 25.472z m299.008-185.856c-11.904 0-24.064-2.752-34.944-8.192l-121.856-61.632a43.712 43.712 0 0 1-24.064-39.232 43.52 43.52 0 0 1 24.192-39.296l122.048-61.568a78.08 78.08 0 0 1 69.632-0.192l118.592 59.52a45.76 45.76 0 1 1 0.32 81.728l-118.592 60.288a78.08 78.08 0 0 1-35.328 8.576z m-11.904-54.144a26.752 26.752 0 0 0 23.872 0l109.056-55.424-109.056-54.784a26.368 26.368 0 0 0-23.68 0l-109.248 55.104 109.056 55.104zM788.48 799.936l-121.856-61.632a18.304 18.304 0 0 1 0-32.768l122.048-61.632a51.328 51.328 0 0 1 46.72 0l118.464 59.584a20.288 20.288 0 0 1 0.192 36.16l-118.656 60.288a51.712 51.712 0 0 1-46.912 0zM811.84 891.52c-11.904 0-23.872-2.688-34.624-8.128l-122.048-61.632a43.84 43.84 0 0 1 0-78.528l87.424-44.032a25.408 25.408 0 0 1 34.304 11.456 25.408 25.408 0 0 1-11.456 34.304l-74.56 37.568 109.056 55.104a26.752 26.752 0 0 0 23.872-0.192l109.056-55.424-74.432-37.248a25.6 25.6 0 1 1 22.912-45.696l83.968 41.984a45.888 45.888 0 1 1 0.192 81.92l-118.464 60.224c-11.136 5.632-23.232 8.32-35.2 8.32zM344.768 603.712a25.152 25.152 0 0 1-12.48-3.2l-105.472-58.752a25.664 25.664 0 0 1-9.92-34.816 25.408 25.408 0 0 1 34.816-9.92l105.472 58.752a25.664 25.664 0 0 1 9.92 34.816 25.472 25.472 0 0 1-22.4 13.12z" /></svg>