<?xml version="1.0" standalone="no"?><!DOCTYPE svg PUBLIC "-//W3C//DTD SVG 1.1//EN" "http://www.w3.org/Graphics/SVG/1.1/DTD/svg11.dtd"><svg class="icon" width="100px" height="100.00px" viewBox="0 0 1024 1024" version="1.1" xmlns="http://www.w3.org/2000/svg"><path d="M648.320235 960.00004H64.0006v-161.535899a286.207821 286.207821 0 0 1 295.359815-287.87182c37.119977 0.895999 72.959954 8.767995 106.815934 23.487985a31.99998 31.99998 0 1 0 25.407984-58.815963 436.159727 436.159727 0 0 0-14.399991-5.887996A251.327843 251.327843 0 0 0 352.00042 0.00064a251.391843 251.391843 0 0 0-125.311922 469.375707 350.079781 350.079781 0 0 0-126.463921 83.199948A350.015781 350.015781 0 0 0 0.00064 798.464141v169.663894c0 30.847981 24.959984 55.807965 55.679965 55.807965h592.51163a31.99998 31.99998 0 0 0 0.064-63.99996zM164.544537 251.328483c0-50.111969 19.455988-97.087939 54.911966-132.479917A186.047884 186.047884 0 0 1 352.00042 64.0006c50.047969 0 97.087939 19.519988 132.479917 54.911966a186.239884 186.239884 0 0 1 54.911966 132.479917c0 50.111969-19.519988 97.087939-54.911966 132.479917a186.239884 186.239884 0 0 1-132.479917 54.911966 186.047884 186.047884 0 0 1-132.479917-54.911966 185.919884 185.919884 0 0 1-54.911966-132.479917z m852.031468 371.199768l-0.064-0.192a161.087899 161.087899 0 0 0-40.319975-63.93596 163.007898 163.007898 0 0 0-65.407959-39.359975 147.839908 147.839908 0 0 0-82.815948-2.239999c-24.191985 6.399996-46.975971 18.559988-67.775958 36.095977l-1.023999 0.896-3.455998 3.519998a172.159892 172.159892 0 0 0-72.703955-40.575975 149.567907 149.567907 0 0 0-82.559948 2.367999 162.239899 162.239899 0 0 0-65.407959 39.423975c-18.559988 18.175989-32.51198 40.319975-40.447975 63.87196v0.128c-8.703995 26.559983-9.599994 53.567967-2.687998 79.99995v0.192c6.911996 25.663984 21.759986 50.687968 43.135973 72.063955l220.351862 220.415862 217.919864-217.727864 1.279999-0.959999 1.663999-1.727999c20.927987-21.119987 35.711978-45.887971 42.879973-71.871955l0.128-0.32c7.039996-26.367984 6.143996-53.311967-2.687998-80.06395z m-59.071963 63.48796c-4.095997 14.719991-12.735992 29.311982-24.959985 42.111974l-1.023999 0.767999-175.99989 175.807891-175.039891-174.975891a101.951936 101.951936 0 0 1-26.687983-43.647973 76.415952 76.415952 0 0 1 1.599999-43.519973 97.279939 97.279939 0 0 1 24.511985-38.399976l0.127999-0.128c11.199993-11.135993 24.767985-19.327988 39.487976-23.935985h0.064c15.74399-4.991997 32.12798-5.503997 47.23197-1.599999 15.29599 4.031997 29.887981 12.159992 43.711973 24.127985l-20.735987 20.799987a31.99998 31.99998 0 0 0 45.439971 45.183972l43.391973-43.583973 0.192-0.192 23.807985-23.935985c13.183992-10.879993 27.199983-18.367989 41.791974-22.207986h0.064c15.35999-4.095997 31.35998-3.583998 47.231971 1.407999h0.064c14.527991 4.479997 28.159982 12.799992 39.679975 23.999985 11.263993 10.879993 19.647988 24.191985 24.319985 38.335976 4.799997 14.719991 5.439997 29.439982 1.727999 43.519973z" /></svg>