<?xml version="1.0" standalone="no"?><!DOCTYPE svg PUBLIC "-//W3C//DTD SVG 1.1//EN" "http://www.w3.org/Graphics/SVG/1.1/DTD/svg11.dtd"><svg class="icon" width="100px" height="100.00px" viewBox="0 0 1024 1024" version="1.1" xmlns="http://www.w3.org/2000/svg"><path d="M832 874.688h-85.312a62.848 62.848 0 0 1-64-64v-256a62.848 62.848 0 0 1 64-64H832a62.848 62.848 0 0 1 64 64v256a62.848 62.848 0 0 1-64 64z m-68.288-72.576h49.088a9.152 9.152 0 0 0 8.512-8.512V571.712A9.152 9.152 0 0 0 812.8 563.2h-49.088a9.152 9.152 0 0 0-8.512 8.512v219.776a9.792 9.792 0 0 0 8.512 10.624z m-209.024 72.576H469.312a62.848 62.848 0 0 1-64-64V213.312a62.848 62.848 0 0 1 64-64h85.376a62.848 62.848 0 0 1 64 64v597.376a62.848 62.848 0 0 1-64 64zM486.4 802.112h49.088A9.152 9.152 0 0 0 544 793.6V230.4a9.152 9.152 0 0 0-8.512-8.512H486.4a9.152 9.152 0 0 0-8.512 8.512v561.088a9.792 9.792 0 0 0 8.512 10.624z m-209.088 72.576H192a62.848 62.848 0 0 1-64-64v-384a62.848 62.848 0 0 1 64-64h85.312a62.848 62.848 0 0 1 64 64v384a62.848 62.848 0 0 1-64 64z m-68.224-72.576h49.024a9.152 9.152 0 0 0 8.576-8.512V443.712a9.152 9.152 0 0 0-8.576-8.512h-49.024a9.152 9.152 0 0 0-8.576 8.512v347.776a9.792 9.792 0 0 0 8.576 10.624z" /></svg>