<?xml version="1.0" standalone="no"?><!DOCTYPE svg PUBLIC "-//W3C//DTD SVG 1.1//EN" "http://www.w3.org/Graphics/SVG/1.1/DTD/svg11.dtd"><svg class="icon" width="100px" height="100.00px" viewBox="0 0 1024 1024" version="1.1" xmlns="http://www.w3.org/2000/svg"><path d="M290.88 651.648a34.88 34.88 0 0 0 0 69.76h325.824a34.88 34.88 0 1 0 0-69.76h-325.76z m581.824 69.76a34.88 34.88 0 0 0 34.944-34.88V259.712c0-17.344-6.464-34.112-18.176-46.976l-147.2-166.592a69.76 69.76 0 0 0-51.712-22.848H186.24a69.76 69.76 0 0 0-69.888 69.76v837.824c0 38.592 31.296 69.824 69.824 69.824h651.648a69.76 69.76 0 0 0 69.76-69.76v-81.472a34.88 34.88 0 1 0-69.76 0v81.408H186.176V93.12h504.384l147.2 166.592v426.88c0 19.2 15.68 34.88 34.944 34.88z m-151.232-197.76a34.88 34.88 0 0 0-34.944-34.944H290.88a34.88 34.88 0 1 0 0 69.824h395.648a34.88 34.88 0 0 0 34.944-34.88z m-430.592-128H640a34.88 34.88 0 0 0 0-69.824H290.88a34.88 34.88 0 1 0 0 69.76z" /></svg>