<?xml version="1.0" standalone="no"?><!DOCTYPE svg PUBLIC "-//W3C//DTD SVG 1.1//EN" "http://www.w3.org/Graphics/SVG/1.1/DTD/svg11.dtd"><svg class="icon" width="100px" height="100.00px" viewBox="0 0 1024 1024" version="1.1" xmlns="http://www.w3.org/2000/svg"><path d="M155.904 1024a77.952 77.952 0 0 1-63.68-33.024 151.232 151.232 0 0 1-28.416-88.448V152.768A152.896 152.896 0 0 1 216.512 0h590.912a152.96 152.96 0 0 1 152.768 152.832v749.696a151.488 151.488 0 0 1-28.672 88.896 79.488 79.488 0 0 1-132.992-10.24l-47.616-87.168-51.84 89.984a77.696 77.696 0 0 1-70.4 39.68 77.696 77.696 0 0 1-64.192-39.68L512 892.992l-51.84 90.432a77.76 77.76 0 0 1-67.2 39.872c-1.088 0-2.176 0-3.2-0.128a77.568 77.568 0 0 1-64.256-39.744l-51.392-89.408-48.64 88.576c-14.4 26.432-41.6 41.408-69.568 41.408z m60.608-959.68c-48.832 0-88.384 39.68-88.384 88.32V902.4c0 18.368 5.696 36.096 16.384 51.072a15.36 15.36 0 0 0 4.992 4.48c6.72 3.776 15.68 0.832 19.584-6.4l72.96-132.672a36.48 36.48 0 0 1 40.768-17.664c9.216 2.368 17.28 8.704 22.016 17.088l76.672 133.568a12.8 12.8 0 0 0 10.624 7.04h0.576c4.48 0 8.896-2.816 11.264-7.104l0.256-0.384 76.48-133.248a36.544 36.544 0 0 1 22.016-17.088 36.032 36.032 0 0 1 40.512 17.024l77.248 134.208c2.304 4.16 6.4 6.784 10.624 7.04h1.28a13.056 13.056 0 0 0 10.624-7.04l0.192-0.448 77.12-133.76a36.032 36.032 0 0 1 26.496-17.92 36.608 36.608 0 0 1 36.416 18.56l71.68 131.456a15.168 15.168 0 0 0 12.608 8 13.888 13.888 0 0 0 12.352-5.504l0.448-0.512c10.24-14.784 15.552-32 15.552-49.92V152.832c0-48.832-39.68-88.448-88.32-88.448H216.448v-0.064zM544.768 254.08H287.168a32.064 32.064 0 0 1-32-32v-0.256c0-17.6 14.464-32 32-32h257.6c17.6 0 32 14.4 32 32v0.256c0 17.6-14.4 32-32 32z m193.6 193.6h-451.2a32.064 32.064 0 0 1-32-32v-0.256c0-17.6 14.464-32 32-32h451.2c17.6 0 32 14.4 32 32v0.256c0 17.6-14.4 32-32 32z m-193.6 195.392H287.168a32.064 32.064 0 0 1-32-32v-0.256c0-17.6 14.464-32 32-32h257.6c17.6 0 32 14.4 32 32v0.256c0 17.6-14.4 32-32 32z" /></svg>