<?xml version="1.0" standalone="no"?><!DOCTYPE svg PUBLIC "-//W3C//DTD SVG 1.1//EN" "http://www.w3.org/Graphics/SVG/1.1/DTD/svg11.dtd"><svg class="icon" width="100px" height="100.00px" viewBox="0 0 1024 1024" version="1.1" xmlns="http://www.w3.org/2000/svg"><path d="M273.152 120c40.832 0 79.36 15.936 108.16 44.864 28.928 28.992 44.928 67.392 44.928 108.288l-0.064 152.96-153.024 0.128c-40.896 0-79.36-15.936-108.288-44.864a152.384 152.384 0 0 1-44.864-108.224c0-40.896 15.936-79.36 44.864-108.288a152.384 152.384 0 0 1 108.288-44.864m0-56a209.152 209.152 0 1 0 0 418.24l208.896-0.064 0.192-209.024A209.152 209.152 0 0 0 273.152 64z m477.696 56c40.896 0 79.36 15.936 108.288 44.864 28.8 28.992 44.864 67.392 44.864 108.288 0 40.832-15.936 79.36-44.864 108.16a152.384 152.384 0 0 1-108.288 44.928l-152.96-0.064c-0.128-49.28-0.128-118.4-0.128-153.024 0-40.896 15.936-79.36 44.864-108.288a152.384 152.384 0 0 1 108.224-44.864m0-56a209.152 209.152 0 0 0-209.088 209.152l0.192 209.024 208.896 0.064a209.152 209.152 0 1 0 0-418.24zM273.152 597.76l152.96 0.064c0.128 49.28 0.128 118.4 0.128 153.024 0 40.896-15.936 79.36-44.864 108.288a152.384 152.384 0 0 1-108.224 44.864c-40.896 0-79.36-15.936-108.288-44.864a152.384 152.384 0 0 1-44.864-108.288c0-40.832 15.936-79.36 44.864-108.16a152.384 152.384 0 0 1 108.288-44.928m0-56a209.152 209.152 0 1 0 209.088 209.088l-0.192-209.024-208.896-0.064zM750.848 960c-55.808 0-108.416-21.76-147.84-61.248a207.936 207.936 0 0 1-61.248-147.84l0.192-181.12a27.968 27.968 0 1 1 56 0l-0.192 180.992a153.28 153.28 0 0 0 153.088 153.152 153.28 153.28 0 0 0 153.152-153.152 153.28 153.28 0 0 0-153.152-153.152h-42.24a27.968 27.968 0 1 1 0-56h42.24c55.872 0 108.416 21.76 147.904 61.312 39.488 39.424 61.248 92.032 61.248 147.84 0 55.808-21.76 108.416-61.248 147.84a207.616 207.616 0 0 1-147.84 61.376z" /></svg>