<?xml version="1.0" standalone="no"?><!DOCTYPE svg PUBLIC "-//W3C//DTD SVG 1.1//EN" "http://www.w3.org/Graphics/SVG/1.1/DTD/svg11.dtd"><svg class="icon" width="100px" height="100.00px" viewBox="0 0 1024 1024" version="1.1" xmlns="http://www.w3.org/2000/svg"><path d="M896 51.2H128c-12.8 0-25.6 12.8-25.6 25.6v870.4c0 12.8 12.8 25.6 25.6 25.6h768c12.8 0 25.6-12.8 25.6-25.6V76.8c0-12.8-12.8-25.6-25.6-25.6z m-179.2 51.2V256l-20.48-15.36-30.72-23.04-30.72 23.04L614.4 256V102.4h102.4zM153.6 921.6V102.4H256v819.2H153.6z m716.8 0H307.2V102.4h256v204.8c0 15.36 12.8 25.6 25.6 25.6 5.12 0 10.24-2.56 15.36-5.12l61.44-46.08 61.44 46.08c5.12 2.56 10.24 5.12 15.36 5.12 12.8 0 25.6-10.24 25.6-25.6V102.4h102.4v819.2zM435.2 563.2h51.2v51.2c0 12.8 12.8 25.6 25.6 25.6s25.6-12.8 25.6-25.6v-51.2h51.2c12.8 0 25.6-12.8 25.6-25.6S601.6 512 588.8 512h-51.2v-51.2c0-12.8-12.8-25.6-25.6-25.6s-25.6 12.8-25.6 25.6V512h-51.2c-12.8 0-25.6 12.8-25.6 25.6s10.24 25.6 25.6 25.6z m332.8 128H435.2c-12.8 0-25.6 12.8-25.6 25.6s12.8 25.6 25.6 25.6H768c12.8 0 25.6-12.8 25.6-25.6s-12.8-25.6-25.6-25.6z m0 102.4H435.2c-12.8 0-25.6 12.8-25.6 25.6s12.8 25.6 25.6 25.6H768c12.8 0 25.6-12.8 25.6-25.6s-12.8-25.6-25.6-25.6z" /></svg>