<?xml version="1.0" standalone="no"?><!DOCTYPE svg PUBLIC "-//W3C//DTD SVG 1.1//EN" "http://www.w3.org/Graphics/SVG/1.1/DTD/svg11.dtd"><svg class="icon" width="100px" height="100.00px" viewBox="0 0 1024 1024" version="1.1" xmlns="http://www.w3.org/2000/svg"><path d="M512 64a448 448 0 1 0 0 896A448 448 0 0 0 512 64z m0 840A392.512 392.512 0 0 1 120 512 392.512 392.512 0 0 1 512 120 392.512 392.512 0 0 1 904 512 392.512 392.512 0 0 1 512 904z m194.176-420.032H538.24v-224a27.968 27.968 0 1 0-56 0V512c0 15.488 12.544 28.032 28.032 28.032h195.968a27.968 27.968 0 1 0 0-56.064z" /></svg>