<?xml version="1.0" standalone="no"?><!DOCTYPE svg PUBLIC "-//W3C//DTD SVG 1.1//EN" "http://www.w3.org/Graphics/SVG/1.1/DTD/svg11.dtd"><svg class="icon" width="100px" height="100.00px" viewBox="0 0 1024 1024" version="1.1" xmlns="http://www.w3.org/2000/svg"><path d="M384 638.08c-135.872-8.32-252.032-42.88-320-91.2V640c0 63.424 138.368 116.096 320 126.208v63.872c-135.872-8.32-252.032-42.816-320-91.136V832H0V224C0 100.352 200.576 0 448 0c247.36 0 448 100.288 448 224v202.112h-64V339.456C753.472 404.48 610.816 448 448 448c-162.944 0-305.6-43.52-384-108.544V448c0 63.36 138.368 116.032 320 126.144v63.872z m64 385.856c-247.424 0-448-85.952-448-192h64c0 70.72 171.904 128 384 128v64z m0-640c212.032 0 384-71.68 384-160S659.968 64 448 64C235.904 64 64 135.68 64 224S235.904 384 448 384z m556.864 419.84l-44.544-25.92c2.56-13.632 4.096-27.52 4.096-41.92a231.68 231.68 0 0 0-4.096-41.92l44.544-25.984a38.592 38.592 0 0 0 13.952-52.48l-38.08-66.496a37.888 37.888 0 0 0-52.032-14.08l-45.056 26.24a227.84 227.84 0 0 0-71.552-42.24V486.4c0-21.12-17.024-38.4-38.08-38.4h-76.16a38.272 38.272 0 0 0-38.08 38.4v32.64a227.84 227.84 0 0 0-71.552 42.24l-45.056-26.24a37.888 37.888 0 0 0-51.968 14.08L453.12 615.68a38.592 38.592 0 0 0 13.952 52.48l44.544 25.92a231.68 231.68 0 0 0-4.096 41.92c0 14.4 1.6 28.288 4.096 41.92l-44.544 25.984a38.592 38.592 0 0 0-13.952 52.48l38.08 66.56a37.888 37.888 0 0 0 51.968 14.08l45.056-26.24a227.2 227.2 0 0 0 71.552 42.24v32.576c0 21.184 17.024 38.4 38.08 38.4h76.16a38.272 38.272 0 0 0 38.08-38.4v-32.64a227.84 227.84 0 0 0 71.552-42.24l45.056 26.24a37.952 37.952 0 0 0 52.032-14.08l38.08-66.56a38.592 38.592 0 0 0-13.952-52.48z m-47.296 37.824l-17.536 29.888a17.728 17.728 0 0 1-24 6.272l-48.768-27.648a176 176 0 0 1-96.192 54.656v37.952a17.408 17.408 0 0 1-17.6 17.28h-35.072a17.408 17.408 0 0 1-17.6-17.28v-37.952a176 176 0 0 1-96.192-54.656l-48.768 27.648a17.728 17.728 0 0 1-23.936-6.272l-17.536-29.888a17.024 17.024 0 0 1 6.4-23.488l48.896-27.776a168.256 168.256 0 0 1-9.28-54.4c0-19.072 3.456-37.248 9.344-54.4l-48.96-27.776a17.024 17.024 0 0 1-6.4-23.488l17.536-29.888a17.728 17.728 0 0 1 23.936-6.272l48.768 27.648a176 176 0 0 1 96.192-54.656v-37.952c0-9.536 7.872-17.152 17.6-17.152h35.072c9.728 0 17.6 7.68 17.6 17.28v37.824a176 176 0 0 1 96.192 54.656l48.768-27.648a17.728 17.728 0 0 1 24 6.272l17.536 29.888a17.024 17.024 0 0 1-6.4 23.488l-48.96 27.776c5.76 17.152 9.28 35.328 9.28 54.4 0 19.072-3.456 37.248-9.28 54.4l48.96 27.776a17.024 17.024 0 0 1 6.4 23.488zM736 640a96 96 0 1 0 0 192 96 96 0 0 0 0-192z m0 128a32 32 0 1 1 0-64 32 32 0 0 1 0 64z" /></svg>