<?xml version="1.0" standalone="no"?><!DOCTYPE svg PUBLIC "-//W3C//DTD SVG 1.1//EN" "http://www.w3.org/Graphics/SVG/1.1/DTD/svg11.dtd"><svg class="icon" width="100px" height="100.00px" viewBox="0 0 1024 1024" version="1.1" xmlns="http://www.w3.org/2000/svg"><path d="M989.44 417.408c0-21.312-8.32-41.216-23.36-56.192l-253.888-253.888a79.104 79.104 0 0 0-56.32-23.36h-0.064c-21.312 0-41.216 8.32-56.192 23.36l-85.76 85.76-85.824-85.76a78.656 78.656 0 0 0-56.256-23.36h-0.064c-21.312 0-41.216 8.32-56.32 23.36L61.696 361.088a79.104 79.104 0 0 0-23.296 56.32c0 21.312 8.32 41.216 23.296 56.32l131.904 131.84c1.216 4.8 3.2 9.536 6.912 13.312L454.4 872.768c14.976 15.04 35.008 23.36 56.32 23.36h0.064c1.088 0 1.984-0.64 3.136-0.64 1.088 0 1.92 0.64 3.072 0.64h0.128c21.248 0 41.152-8.32 56.32-23.36l253.888-253.888a79.36 79.36 0 0 0 12.992-19.392L966.208 473.6c14.912-14.912 23.168-34.88 23.168-56.192z m-895.04 0c0-6.336 2.56-12.16 6.912-16.704L355.2 146.816a23.36 23.36 0 0 1 16.64-6.912c6.4 0 12.288 2.368 16.768 6.912l85.888 85.888L355.84 351.36l27.2 27.264c23.424 23.424 54.4 36.224 87.424 36.224 33.088 0 64.128-12.8 87.424-36.224l31.296-31.296 198.592 198.592c4.48 4.48 6.912 10.432 6.912 16.704 0 1.536-0.64 2.816-0.832 4.224l-40.96 40.96-56.256-56.32a28.096 28.096 0 0 0-39.552 39.68l56.192 56.32-35.328 35.2-56.192-56.256a28.096 28.096 0 0 0-39.616 39.616l56.192 56.32-36.48 36.48-56.192-56.32a28.096 28.096 0 0 0-39.616 39.616l56.192 56.32-34.88 34.88a22.72 22.72 0 0 1-13.44 6.272 23.232 23.232 0 0 1-13.44-6.272l-399.104-399.36a23.36 23.36 0 0 1-6.912-16.64z m832.128 16.64l-88.512 88.576c-3.328-5.632-6.144-11.52-10.816-16.256L627.072 306.368a28.096 28.096 0 0 0-45.696-30.4l-63.296 63.296a69.12 69.12 0 0 1-81.792 10.688l167.424-167.36 0.32-0.512 35.072-35.136a22.976 22.976 0 0 1 16.64-6.848c6.272 0 12.16 2.496 16.64 6.848l253.888 253.952c4.48 4.48 6.912 10.368 6.912 16.64a21.952 21.952 0 0 1-6.656 16.64z" /></svg>