<?xml version="1.0" standalone="no"?><!DOCTYPE svg PUBLIC "-//W3C//DTD SVG 1.1//EN" "http://www.w3.org/Graphics/SVG/1.1/DTD/svg11.dtd"><svg class="icon" width="100px" height="100.00px" viewBox="0 0 1024 1024" version="1.1" xmlns="http://www.w3.org/2000/svg"><path d="M575.232 896H160a32 32 0 0 1-32-32v-704a32 32 0 0 1 32-32H704a32 32 0 0 1 32 32 32 32 0 1 0 64 0A96 96 0 0 0 704 64H160A96 96 0 0 0 64 160v704A96 96 0 0 0 160 960h415.232a32 32 0 1 0 0-64zM512 288a32 32 0 0 0-32-32h-256a32 32 0 0 0 0 64h256a32 32 0 0 0 32-32z m-32 192A32 32 0 0 0 448 448H224a32 32 0 0 0 0 64H448a32 32 0 0 0 32-32z m-256 192a32 32 0 1 0 0 64h128a32 32 0 1 0 0-64h-128z m640-48h-66.176C822.08 556.288 864 431.68 864 416a160 160 0 1 0-320 0c0 20.096 39.872 139.776 65.728 208H544a96 96 0 0 0-96 96v32a96 96 0 0 0 96 96h320a96 96 0 0 0 96-96v-32a96 96 0 0 0-96-96z m-221.504-98.496C623.104 469.76 608 420.608 608 416a96 96 0 0 1 192 0c0 6.272-52.224 158.464-70.336 208h-51.2c-8-20.16-22.4-59.264-36.032-98.496zM896 752a32 32 0 0 1-32 32h-320a32 32 0 0 1-32-32v-32a32 32 0 0 1 32-32h320a32 32 0 0 1 32 32v32z" /></svg>