<?xml version="1.0" standalone="no"?><!DOCTYPE svg PUBLIC "-//W3C//DTD SVG 1.1//EN" "http://www.w3.org/Graphics/SVG/1.1/DTD/svg11.dtd"><svg class="icon" width="100px" height="100.00px" viewBox="0 0 1024 1024" version="1.1" xmlns="http://www.w3.org/2000/svg"><path d="M147.456 345.728a24.576 24.576 0 0 0-24.576 24.576v465.28c0 13.504 11.072 24.576 24.576 24.576h681.6a24.576 24.576 0 0 0 24.576-24.576v-465.28a24.576 24.576 0 0 0-24.576-24.576H147.456z m681.6 563.584H147.456a73.728 73.728 0 0 1-73.728-73.728v-465.28c0-40.768 33.024-73.728 73.728-73.728h681.6c40.704 0 73.728 32.96 73.728 73.728v465.28c0 40.704-33.024 73.728-73.728 73.728M98.304 466.944h779.904v49.152H98.304v-49.152z m140.288 199.68L168.96 596.992a24.96 24.96 0 0 1 0-34.816 24.96 24.96 0 0 1 34.816 0l69.632 69.632a24.96 24.96 0 0 1 0 34.816 24.96 24.96 0 0 1-34.816 0M168.96 631.808l69.632-69.632a24.96 24.96 0 0 1 34.816 0 24.96 24.96 0 0 1 0 34.816l-69.632 69.632a24.96 24.96 0 0 1-34.816 0 24.96 24.96 0 0 1 0-34.816m543.744-383.616H258.048a24.576 24.576 0 0 1-24.576-24.576v-4.864c0-13.568 11.008-24.576 24.576-24.576h454.656c13.568 0 24.576 11.008 24.576 24.576v4.864a24.576 24.576 0 0 1-24.576 24.576m-134.4-122.432a27.008 27.008 0 0 0-27.008-27.072H431.744a27.008 27.008 0 1 0 0 54.08h119.552c14.976 0 27.072-12.096 27.072-27.008z" /></svg>