<?xml version="1.0" standalone="no"?><!DOCTYPE svg PUBLIC "-//W3C//DTD SVG 1.1//EN" "http://www.w3.org/Graphics/SVG/1.1/DTD/svg11.dtd"><svg class="icon" width="100px" height="100.00px" viewBox="0 0 1024 1024" version="1.1" xmlns="http://www.w3.org/2000/svg"><path d="M862.016 98.368c52.736 0 95.488 42.752 95.488 95.424v190.976c-30.4 0-59.84 10.88-82.88 30.656a33.6 33.6 0 0 1-25.856 12.416 31.808 31.808 0 0 1-25.472-50.88 182.464 182.464 0 0 1 70.528-44.992V193.792a31.808 31.808 0 0 0-31.808-31.808H161.984a31.808 31.808 0 0 0-31.808 31.808v138.176a190.976 190.976 0 0 1 0 360.064v138.176c0 17.536 14.272 31.808 31.808 31.808h286.4a31.808 31.808 0 1 1 0 63.68H161.984a95.424 95.424 0 0 1-95.488-95.488V639.296a127.296 127.296 0 1 0 0-254.528V193.792c0-52.672 42.752-95.424 95.488-95.424h700.032zM734.72 480.192a222.72 222.72 0 1 1 0 445.44 222.72 222.72 0 0 1 0-445.44m0 63.68a159.104 159.104 0 1 0 0 318.208 159.104 159.104 0 0 0 0-318.272m-9.216 54.592l4.48 3.52 76.224 73.6c11.456 11.008 12.992 28.8 3.712 41.6l-3.84 4.48-78.016 73.6a31.808 31.808 0 0 1-47.488-41.984l3.84-4.288 53.568-50.752-52.288-50.432a31.808 31.808 0 0 1-4.416-40.512l3.648-4.48a31.808 31.808 0 0 1 40.512-4.48l0.064 0.128zM352.896 289.28h318.208a31.808 31.808 0 1 1 0 63.616H352.896a31.808 31.808 0 0 1 0-63.616m0 159.104h127.36a31.808 31.808 0 0 1 0 63.616h-127.36a31.808 31.808 0 0 1 0-63.616" /></svg>