<?xml version="1.0" standalone="no"?><!DOCTYPE svg PUBLIC "-//W3C//DTD SVG 1.1//EN" "http://www.w3.org/Graphics/SVG/1.1/DTD/svg11.dtd"><svg class="icon" width="100px" height="100.00px" viewBox="0 0 1024 1024" version="1.1" xmlns="http://www.w3.org/2000/svg"><path d="M192.96 36.224h433.216c9.984 0 19.392 4.096 26.176 10.624L916.48 311.04c7.04 7.68 10.88 16.768 10.88 26.368v551.488c0 26.752-10.88 51.072-29.056 68.992l-1.024 0.832a96.768 96.768 0 0 1-67.968 28.032H192.96c-26.432 0-50.816-10.88-68.992-28.864-17.664-17.92-28.8-42.24-28.8-68.992V134.016c0-26.944 11.136-51.328 28.8-69.12 17.6-17.792 42.048-28.672 68.992-28.672zM298.432 763.52h366.912a21.76 21.76 0 0 0 22.016-21.76 22.08 22.08 0 0 0-22.016-22.08H298.432a22.272 22.272 0 0 0-21.952 22.08c0 11.904 9.92 21.76 21.952 21.76z m0-154.368H548.48c11.904 0 21.504-9.6 21.504-21.568a21.76 21.76 0 0 0-21.504-22.272H298.432a22.08 22.08 0 0 0-21.952 22.272 21.76 21.76 0 0 0 21.952 21.568z m0-154.432h425.28c12.16 0 22.016-9.856 22.016-21.76a22.272 22.272 0 0 0-22.016-22.4H298.432a22.272 22.272 0 0 0-21.952 22.4c0 11.904 9.92 21.76 21.952 21.76z m306.048-345.6h-411.52a24.768 24.768 0 0 0-24.32 24.896V888.96c0 6.72 2.56 12.928 6.912 17.408 4.48 4.608 10.624 7.232 17.408 7.232h636.352c6.72 0 12.992-2.56 17.088-7.04l0.64-0.192a26.56 26.56 0 0 0 7.168-17.408V359.04H687.36c-22.592 0-43.648-9.024-58.88-24.32l-1.088-1.344a83.392 83.392 0 0 1-22.912-57.6V109.12z m212.288 206.272l-168.576-168.96v129.28a40.96 40.96 0 0 0 10.432 26.944l0.96 1.024c7.232 7.04 17.024 11.712 27.776 11.712h129.408z" /></svg>