<?xml version="1.0" standalone="no"?><!DOCTYPE svg PUBLIC "-//W3C//DTD SVG 1.1//EN" "http://www.w3.org/Graphics/SVG/1.1/DTD/svg11.dtd"><svg class="icon" width="100px" height="100.00px" viewBox="0 0 1024 1024" version="1.1" xmlns="http://www.w3.org/2000/svg"><path d="M332.672 597.952c18.688 11.712 38.848 21.248 60.16 28.224l-158.144 184.512h270.528l-14.912 64H234.688a64 64 0 0 1-48.64-105.664l146.624-171.072z m340.544-25.856a43.456 43.456 0 0 1 58.432 19.136l25.6 50.624 56.704 8.064a43.328 43.328 0 0 1 22.72 10.496l2.624 2.56a43.456 43.456 0 0 1-1.536 61.44l-40.32 38.4 9.6 54.592a43.52 43.52 0 0 1-2.56 23.68l-1.664 3.648a43.456 43.456 0 0 1-58.496 18.816l-51.456-26.432-51.52 26.432a43.456 43.456 0 0 1-23.36 4.672l-3.968-0.512a43.456 43.456 0 0 1-35.328-50.304l9.6-54.592-40.32-38.4a43.456 43.456 0 0 1-12.416-21.76l-0.704-3.648a43.456 43.456 0 0 1 36.928-49.088l56.704-8.064 25.6-50.624a43.712 43.712 0 0 1 15.744-17.216l3.392-1.92z m19.648 65.344l-27.968 55.296-60.8 8.576 43.968 41.856-10.56 60.032 55.36-28.416 55.296 28.416-10.56-60.032 43.968-41.856-60.8-8.576-27.904-55.296zM479.488 149.312a213.312 213.312 0 1 1 0 426.688 213.312 213.312 0 0 1 0-426.688z m0 64a149.312 149.312 0 1 0 0 298.688 149.312 149.312 0 0 0 0-298.688z" /></svg>