<?xml version="1.0" standalone="no"?><!DOCTYPE svg PUBLIC "-//W3C//DTD SVG 1.1//EN" "http://www.w3.org/Graphics/SVG/1.1/DTD/svg11.dtd"><svg class="icon" width="100px" height="100.00px" viewBox="0 0 1024 1024" version="1.1" xmlns="http://www.w3.org/2000/svg"><path d="M506.88 958.976H88.064A24.064 24.064 0 0 1 64 934.912V88.064C64 74.752 74.752 64 88.064 64h684.032c13.312 0 24.064 10.752 24.064 24.064v397.312c0 16.896 13.824 30.72 30.72 30.72s30.72-13.824 30.72-30.72V88.064C857.6 40.96 819.2 2.56 772.096 2.56H88.064C40.96 2.56 2.56 40.96 2.56 88.064v846.848c0 47.104 38.4 85.504 85.504 85.504H506.88c16.896 0 30.72-13.824 30.72-30.72a30.784 30.784 0 0 0-30.72-30.72zM1020.416 709.12a29.76 29.76 0 0 0-24.576-20.992l-142.336-20.48-63.488-129.024a30.976 30.976 0 0 0-55.296 0l-63.488 129.024-142.336 20.48a30.464 30.464 0 0 0-24.576 20.992 31.488 31.488 0 0 0 7.68 31.744l102.4 99.84-24.064 141.824a30.976 30.976 0 0 0 12.288 30.208 29.568 29.568 0 0 0 32.256 2.56l126.976-66.56 126.976 66.56c4.608 2.56 9.216 3.584 14.336 3.584a34.56 34.56 0 0 0 18.944-6.144 30.4 30.4 0 0 0 12.288-30.208l-24.576-141.824 102.912-99.84a31.488 31.488 0 0 0 7.68-31.744z m-165.888 99.328a31.04 31.04 0 0 0-8.704 27.136l16.384 96.256-86.016-45.056a31.488 31.488 0 0 0-28.672 0l-86.528 45.568 16.384-96.768a30.08 30.08 0 0 0-8.704-27.136L599.04 740.864l96.768-13.824a31.232 31.232 0 0 0 23.04-16.896l43.008-87.552 43.008 87.552c4.608 9.216 12.8 15.36 23.04 16.896l96.256 13.824-69.632 67.584zM186.88 313.856h263.168c16.896 0 30.72-13.824 30.72-30.72a30.784 30.784 0 0 0-30.72-30.72H186.88a30.784 30.784 0 0 0-30.72 30.72c0 16.896 13.824 30.72 30.72 30.72z m0 166.4h322.048c16.896 0 30.72-13.824 30.72-30.72a30.784 30.784 0 0 0-30.72-30.72H186.88a30.784 30.784 0 0 0-30.72 30.72c0 16.896 13.824 30.72 30.72 30.72z m0 166.4h358.4c16.896 0 30.72-13.824 30.72-30.72a30.784 30.784 0 0 0-30.72-30.72h-358.4a30.784 30.784 0 0 0-30.72 30.72c0 16.896 13.824 30.72 30.72 30.72z" /></svg>