<?xml version="1.0" standalone="no"?><!DOCTYPE svg PUBLIC "-//W3C//DTD SVG 1.1//EN" "http://www.w3.org/Graphics/SVG/1.1/DTD/svg11.dtd"><svg class="icon" width="100px" height="100.00px" viewBox="0 0 1024 1024" version="1.1" xmlns="http://www.w3.org/2000/svg"><path d="M824.256 960H199.68a101.76 101.76 0 0 1-101.76-101.76V165.76c0-56.192 45.568-101.76 101.76-101.76h624.512c56.192 0 101.76 45.568 101.76 101.76v692.48A101.76 101.76 0 0 1 824.32 960zM199.68 131.84a33.92 33.92 0 0 0-33.92 33.92v692.48c0 18.688 15.168 33.92 33.92 33.92h624.512a33.92 33.92 0 0 0 33.92-33.92V165.76a33.92 33.92 0 0 0-33.92-33.92H199.68z m441.216 556.672H369.472a33.92 33.92 0 1 1 0-67.904h271.488a33.92 33.92 0 0 1 0 67.84z m0 135.68H369.472a33.92 33.92 0 0 1 0-67.84h271.488a33.92 33.92 0 0 1 0 67.84zM654.528 512H376.32a33.92 33.92 0 0 1 0-67.84h278.272a33.92 33.92 0 0 1 0 67.84z m0-115.392H376.32a33.92 33.92 0 0 1 0-67.84h278.272a33.92 33.92 0 1 1 0 67.84zM512 573.12a33.92 33.92 0 0 1-33.92-33.92V362.624a33.92 33.92 0 1 1 67.84 0v176.448a33.92 33.92 0 0 1-33.92 33.92z m6.784-190.08h-27.136a33.92 33.92 0 0 1 0-47.552L613.76 213.312a33.92 33.92 0 1 1 47.488 47.552L539.136 376.256l-20.352 6.784z m0 0h-27.136l-115.392-122.24a33.92 33.92 0 1 1 47.488-47.488l115.392 115.392a40.704 40.704 0 0 1 6.784 47.552l-27.136 6.784z" /></svg>