<?xml version="1.0" standalone="no"?><!DOCTYPE svg PUBLIC "-//W3C//DTD SVG 1.1//EN" "http://www.w3.org/Graphics/SVG/1.1/DTD/svg11.dtd"><svg class="icon" width="100px" height="100.00px" viewBox="0 0 1024 1024" version="1.1" xmlns="http://www.w3.org/2000/svg"><path d="M409.408 156.672c-100.352 0-181.312 83.52-181.312 186.112 0 102.528 80.96 186.048 181.312 186.048 100.416 0 181.376-83.52 181.376-186.048 0-102.592-80.96-186.112-181.376-186.112z m0 310.4c-65.792 0-119.488-55.424-119.488-124.288s53.76-124.288 119.488-124.288c65.856 0 119.552 55.424 119.552 124.288s-53.76 124.288-119.552 124.288z m-345.344 363.904c-1.28 17.92 12.8 33.216 30.848 33.216h629.056c17.92 0 32.192-15.36 30.784-33.28-11.712-156.416-117.056-279.168-247.168-279.168H311.296c-130.176 0-235.456 122.752-247.232 279.232z m443.52-217.472c94.336 0 176 95.296 185.6 222.08l30.784-33.216h-629.12l30.848 33.28c9.6-126.912 91.2-222.08 185.6-222.08h196.288z m421.504-317.312a30.912 30.912 0 1 0 0-61.824h-225.6a30.912 30.912 0 0 0 0 61.824h225.6z m0 169.92a30.912 30.912 0 1 0 0-61.824h-239.36a30.912 30.912 0 0 0 0 61.824h239.36z m0 169.92a30.912 30.912 0 1 0 0-61.76h-184.576a30.912 30.912 0 0 0 0 61.76h184.576z" /></svg>