<?xml version="1.0" standalone="no"?><!DOCTYPE svg PUBLIC "-//W3C//DTD SVG 1.1//EN" "http://www.w3.org/Graphics/SVG/1.1/DTD/svg11.dtd"><svg class="icon" width="100px" height="100.00px" viewBox="0 0 1024 1024" version="1.1" xmlns="http://www.w3.org/2000/svg"><path d="M1024 339.84L865.728 51.2c-4.608-4.672-9.28-9.28-13.952-9.28H172.224c-4.672 0-9.344 4.608-13.952 9.28L0 335.104c0 9.344 0 14.016 4.672 18.624l484.032 614.4c9.344 13.952 32.64 13.952 46.592 0l484.032-614.4C1024 349.12 1024 344.448 1024 339.84zM600.448 107.008l74.432 204.8H344.448l74.432-204.8h181.568z m-400.32 0h148.992l-74.496 204.8H88.32l111.744-204.8zM102.4 376.96h176.896l139.584 409.6L102.4 376.96zM512 842.496L349.12 376.96h325.76L512 842.496z m88.448-55.872l144.256-414.272H921.6l-321.152 414.272z m144.256-474.752l-74.432-204.8h153.6l107.008 204.8h-186.176z" /></svg>