<?xml version="1.0" standalone="no"?><!DOCTYPE svg PUBLIC "-//W3C//DTD SVG 1.1//EN" "http://www.w3.org/Graphics/SVG/1.1/DTD/svg11.dtd"><svg class="icon" width="100px" height="100.00px" viewBox="0 0 1024 1024" version="1.1" xmlns="http://www.w3.org/2000/svg"><path d="M848 960H176C114.368 960 64 909.632 64 848V176C64 114.368 114.368 64 176 64h672c61.632 0 112 50.368 112 112v672c0 61.632-50.368 112-112 112z m56-728c0-61.568-50.368-112-112-112h-560c-61.568 0-112 50.432-112 112v560c0 61.632 50.432 112 112 112h560c61.632 0 112-50.368 112-112v-560zM400 736h392v56H400V736z m0-168h392v56H400v-56z m0-168h392v56H400V400z m0-168h392V288H400v-56zM232 736H288v56h-56V736z m0-168H288v56h-56v-56z m0-168H288v56h-56V400z m0-168H288V288h-56v-56z" /></svg>