<?xml version="1.0" standalone="no"?><!DOCTYPE svg PUBLIC "-//W3C//DTD SVG 1.1//EN" "http://www.w3.org/Graphics/SVG/1.1/DTD/svg11.dtd"><svg class="icon" width="100px" height="100.00px" viewBox="0 0 1024 1024" version="1.1" xmlns="http://www.w3.org/2000/svg"><path d="M256 85.312v64H170.688v725.376h256v64h-320V85.312H256zM469.312 704v64H234.688v-64h234.624z m0-128v64H234.688V576h234.624z m126.72-321.28l45.248 45.248-171.968 171.968-129.28-129.28 45.248-45.248L469.312 381.44l126.72-126.72zM704 85.312L874.688 256v192h-64V282.496l-133.184-133.12H320v-64h384zM704 512a106.688 106.688 0 1 1 0 213.312A106.688 106.688 0 0 1 704 512z m0 64a42.688 42.688 0 1 0 0 85.312A42.688 42.688 0 0 0 704 576z m64 170.688a128 128 0 0 1 128 128V960H512v-85.312a128 128 0 0 1 128-128h128z m0 64h-128a64 64 0 0 0-63.872 60.224L576 874.688V896h256v-21.312a64 64 0 0 0-60.224-63.936L768 810.688z" /></svg>