<?xml version="1.0" standalone="no"?><!DOCTYPE svg PUBLIC "-//W3C//DTD SVG 1.1//EN" "http://www.w3.org/Graphics/SVG/1.1/DTD/svg11.dtd"><svg class="icon" width="100px" height="100.00px" viewBox="0 0 1024 1024" version="1.1" xmlns="http://www.w3.org/2000/svg"><path d="M510.592 128.96a151.04 151.04 0 1 1 0 301.952 151.04 151.04 0 0 1 0-301.952m0-64a215.04 215.04 0 1 0 0 429.952 215.04 215.04 0 0 0 0-429.952z m178.816 512.64c45.184 0 88.064 19.52 120.832 54.848 16.576 17.92 29.568 38.848 38.4 61.568 9.6 24.256 14.4 50.112 14.336 76.16v62.72c0 17.92-6.336 34.56-17.792 47.04a51.072 51.072 0 0 1-36.928 17.152H215.744a50.944 50.944 0 0 1-36.928-17.152 68.8 68.8 0 0 1-17.792-47.04v-62.72a207.104 207.104 0 0 1 14.272-76.16 195.2 195.2 0 0 1 38.4-61.504c32.832-35.392 75.712-54.848 120.96-54.848h30.784l90.624 97.92a75.968 75.968 0 0 0 111.488 0.192l91.2-98.176h30.656m0-64h-53.312a12.032 12.032 0 0 0-8.768 3.84L520.64 632.32a11.968 11.968 0 0 1-17.6 0L396.992 517.504a11.968 11.968 0 0 0-8.832-3.84h-53.568c-130.688 0-237.568 115.392-237.568 256.512v62.72c0 70.464 53.376 128.192 118.72 128.192h592.512c65.28 0 118.72-57.728 118.72-128.192v-62.72c0-141.12-106.88-256.512-237.568-256.512z" /></svg>