<?xml version="1.0" standalone="no"?><!DOCTYPE svg PUBLIC "-//W3C//DTD SVG 1.1//EN" "http://www.w3.org/Graphics/SVG/1.1/DTD/svg11.dtd"><svg class="icon" width="100px" height="100.00px" viewBox="0 0 1024 1024" version="1.1" xmlns="http://www.w3.org/2000/svg"><path d="M157.568 751.296a1325.248 1325.248 0 0 1-21.76-37.888 426.688 426.688 0 1 1 157.12 164.8 2786.688 2786.688 0 0 0-20.096-11.776l-104.384 28.416a32 32 0 0 1-39.296-39.296l28.416-104.256z m65.28 3.84l-17.28 63.232 63.36-17.28a32 32 0 0 1 24.512 3.2c10.816 6.336 21.568 12.608 32.32 19.008a362.688 362.688 0 1 0-133.632-140.16c3.776 6.912 12.992 22.848 27.392 47.232a32 32 0 0 1 3.328 24.704z m145.984-70.848a32 32 0 1 1 40.96-49.152A159.168 159.168 0 0 0 512 672c37.888 0 73.664-13.184 102.208-36.864a32 32 0 0 1 40.896 49.216A223.168 223.168 0 0 1 512 736a223.168 223.168 0 0 1-143.168-51.712z" /></svg>