<?xml version="1.0" standalone="no"?><!DOCTYPE svg PUBLIC "-//W3C//DTD SVG 1.1//EN" "http://www.w3.org/Graphics/SVG/1.1/DTD/svg11.dtd"><svg class="icon" width="100px" height="100.00px" viewBox="0 0 1024 1024" version="1.1" xmlns="http://www.w3.org/2000/svg"><path d="M535.296 553.92c69.76-41.92 116.352-116.416 116.352-200.192a238.4 238.4 0 0 0-237.44-237.376c-130.304 0-246.656 107.072-246.656 237.44 0 83.712 46.528 158.208 116.352 200.128-125.632 46.528-214.08 167.552-214.08 311.808 0 23.296 18.56 41.92 41.856 41.92 23.296 0 41.92-18.624 41.92-41.92 0-139.648 116.352-256 256-256 144.32 0 256 116.352 256 256 0 23.296 18.56 41.92 41.92 41.92 23.232 0 41.856-18.624 41.856-41.92 0-139.648-88.448-260.608-214.08-311.808zM409.6 512a156.928 156.928 0 0 1-158.272-158.272A156.928 156.928 0 0 1 409.6 195.52a156.928 156.928 0 0 1 158.272 158.208A156.928 156.928 0 0 1 409.6 512z m353.728-167.552h153.6c23.296 0 37.248-18.624 37.248-37.248a36.736 36.736 0 0 0-37.248-37.248h-153.6a36.736 36.736 0 0 0-37.248 37.248c-4.608 18.56 14.016 37.248 37.248 37.248z m153.6 69.76h-195.456a36.736 36.736 0 0 0-37.248 37.312c0 23.232 18.56 37.184 37.248 37.184h195.456c23.296 0 37.248-18.56 37.248-37.184s-18.56-37.248-37.248-37.248z m0 148.992h-153.6a36.736 36.736 0 0 0-37.248 37.248c0 23.232 18.624 37.248 37.248 37.248h153.6c23.296 0 37.248-18.624 37.248-37.248s-18.56-37.248-37.248-37.248z" /></svg>