<?xml version="1.0" standalone="no"?><!DOCTYPE svg PUBLIC "-//W3C//DTD SVG 1.1//EN" "http://www.w3.org/Graphics/SVG/1.1/DTD/svg11.dtd"><svg class="icon" width="100px" height="100.00px" viewBox="0 0 1024 1024" version="1.1" xmlns="http://www.w3.org/2000/svg"><path d="M367.232 936.832H186.88c-62.08 0-112.64-50.56-112.64-112.64V199.808c0-62.08 50.56-112.64 112.64-112.64h180.352c62.08 0 112.64 50.56 112.64 112.64v624.384c0 62.08-50.56 112.64-112.64 112.64zM186.88 148.608c-28.16 0-51.2 22.976-51.2 51.2v624.384c0 28.224 23.04 51.2 51.2 51.2h180.352c28.224 0 51.2-22.976 51.2-51.2V199.808c0-28.224-22.976-51.2-51.2-51.2H186.88zM840.384 542.72h-180.352c-62.08 0-112.64-50.56-112.64-112.64V199.808c0-62.08 50.56-112.64 112.64-112.64h180.352c62.08 0 112.64 50.56 112.64 112.64V430.08c0 62.08-50.56 112.64-112.64 112.64z m-180.288-394.112c-28.224 0-51.2 22.976-51.2 51.2V430.08c0 28.16 22.976 51.2 51.2 51.2h180.352c28.16 0 51.2-23.04 51.2-51.2V199.808c0-28.224-23.04-51.2-51.2-51.2h-180.352zM840.384 936.832h-180.352c-62.08 0-112.64-50.56-112.64-112.64v-100.48c0-62.144 50.56-112.64 112.64-112.64h180.352c62.08 0 112.64 50.496 112.64 112.64v100.48c0 62.08-50.56 112.64-112.64 112.64z m-180.288-264.32c-28.224 0-51.2 22.912-51.2 51.2v100.48c0 28.224 22.976 51.2 51.2 51.2h180.352c28.16 0 51.2-22.976 51.2-51.2v-100.48c0-28.288-23.04-51.2-51.2-51.2h-180.352z" /></svg>