<?xml version="1.0" standalone="no"?><!DOCTYPE svg PUBLIC "-//W3C//DTD SVG 1.1//EN" "http://www.w3.org/Graphics/SVG/1.1/DTD/svg11.dtd"><svg class="icon" width="100px" height="100.00px" viewBox="0 0 1024 1024" version="1.1" xmlns="http://www.w3.org/2000/svg"><path d="M333.504 1022.464v-307.072h31.36a52.224 52.224 0 0 0 52.352-52.352V445.248a52.224 52.224 0 0 0-52.352-52.352H198.144a52.224 52.224 0 0 0-52.288 52.288v217.856c0 28.992 23.36 52.352 52.288 52.352h31.36v307.072H161.792V776.96a120.448 120.448 0 0 1-83.072-113.92V445.248c0-65.92 53.504-119.36 119.36-119.424h166.784c65.92 0 120.064 53.504 120.064 119.36v217.856a120.448 120.448 0 0 1-83.072 113.92v245.504H333.504z m547.136-88a64.64 64.64 0 1 1 0-129.28 64.64 64.64 0 0 1 0 129.28z m-252.992-30.72v-5.632a30.464 30.464 0 0 1-12.352-15.296 51.008 51.008 0 0 1-3.584-14.208V547.392h-48.64a33.6 33.6 0 0 1-32-35.136 32.96 32.96 0 0 1 32-31.936h48.64v-321.92c0-6.784 1.792-13.44 6.08-19.008a35.008 35.008 0 0 1 28.416-16h86.144a33.472 33.472 0 0 1 33.152 34.432 33.664 33.664 0 0 1-32.576 32.64h-53.568v289.28h53.632c18.432 0 33.728 15.36 33.728 33.856 0 18.432-15.296 33.856-33.728 33.856h-53.632v288.64h52.992c18.368 0 33.792 15.424 33.792 33.856 0 18.496-15.36 33.856-33.792 33.856H627.648v-0.128z m252.992-325.568a64.64 64.64 0 1 1 0.064-129.344 64.64 64.64 0 0 1-0.064 129.344zM281.216 278.4A138.624 138.624 0 0 1 142.72 140.032 138.688 138.688 0 0 1 281.216 1.536a138.624 138.624 0 0 1 138.368 138.432 138.56 138.56 0 0 1-138.368 138.496z m0-208.512c-38.784 0-70.848 32-70.848 70.72 0 38.784 32 70.784 70.848 70.784 38.784 0 70.784-32 70.784-70.784 0-38.784-32-70.784-70.784-70.784z m599.424 151.936a64.64 64.64 0 1 1 0-129.216 64.64 64.64 0 1 1 0 129.216z" /></svg>