<?xml version="1.0" standalone="no"?><!DOCTYPE svg PUBLIC "-//W3C//DTD SVG 1.1//EN" "http://www.w3.org/Graphics/SVG/1.1/DTD/svg11.dtd"><svg class="icon" width="100px" height="100.00px" viewBox="0 0 1024 1024" version="1.1" xmlns="http://www.w3.org/2000/svg"><path d="M640 523.2a31.04 31.04 0 0 0 0-62.016h-58.816l66.24-149.312a30.656 30.656 0 0 0-55.808-24.96l-78.72 174.272h-2.368l-78.72-174.272a30.528 30.528 0 0 0-55.808 24.96l65.984 149.312h-61.952a31.04 31.04 0 0 0 0 62.016H480.64V588.8H380.032a31.04 31.04 0 0 0 0 62.016H480.64v98.368a31.04 31.04 0 0 0 62.016 0V650.88H640a31.04 31.04 0 0 0 0-62.016H542.592V523.2H640zM61.888 255.424a32 32 0 0 0 40.832 19.584l26.24-9.216v613.632c0 42.496 34.56 76.992 76.928 76.992h615.04c42.496 0 76.992-34.56 76.992-76.992V269.824l21.504 7.808a32 32 0 0 0 21.76-60.224L513.6 62.4 81.472 214.592a32.064 32.064 0 0 0-19.584 40.832z m772.032-8.832v632.832c0 7.168-5.76 12.992-12.992 12.992H206.016a12.992 12.992 0 0 1-12.992-12.992V243.2L513.28 130.432l320.64 116.224z" /></svg>