<?xml version="1.0" standalone="no"?><!DOCTYPE svg PUBLIC "-//W3C//DTD SVG 1.1//EN" "http://www.w3.org/Graphics/SVG/1.1/DTD/svg11.dtd"><svg class="icon" width="100px" height="100.00px" viewBox="0 0 1024 1024" version="1.1" xmlns="http://www.w3.org/2000/svg"><path d="M912 777.728a56 56 0 0 1-56 56h-151.232c21.12 21.76 20.608 56.448-1.152 77.568l-0.832 0.768-77.76-80a32 32 0 0 1 22.976-54.336h264zM495.616 112.32a225.024 225.024 0 0 1 129.28 409.152 381.696 381.696 0 0 1 78.784 38.72l1.92 1.28 26.752 17.408a66.368 66.368 0 0 1-89.216 20.992l-3.52-2.048-2.624-1.472-2.176-1.28-1.472-0.832-0.768-0.384-0.64-0.384-0.512-0.192h-0.064a320.256 320.256 0 0 0-135.68-29.952c-165.504 0-301.44 124.8-317.44 284.416l-0.448 4.8a64.128 64.128 0 0 1-63.936 58.752H112.64v-32c0-164.864 105.856-305.152 253.696-357.76a225.024 225.024 0 0 1 129.28-409.216z m329.216 482.56l77.824 80.128a32 32 0 0 1-22.976 54.272H615.68c0-30.912 25.024-56 56-56h151.232a54.848 54.848 0 0 1 1.088-77.504l0.832-0.832z m-329.216-418.56a161.024 161.024 0 1 0 0 321.984 161.024 161.024 0 0 0 0-321.92z" /></svg>