<?xml version="1.0" standalone="no"?><!DOCTYPE svg PUBLIC "-//W3C//DTD SVG 1.1//EN" "http://www.w3.org/Graphics/SVG/1.1/DTD/svg11.dtd"><svg class="icon" width="100px" height="100.00px" viewBox="0 0 1024 1024" version="1.1" xmlns="http://www.w3.org/2000/svg"><path d="M320.768 788.352c2.56-0.64-0.64 0-2.56 0.64h0.64c1.28-0.64 1.92-0.64 1.92-0.64zM947.2 676.928c-5.504-5.824-39.424-37.12-94.08-87.68-40.512-37.376-90.88-83.84-96-89.28l-0.128-0.064a58.688 58.688 0 0 0-40.576-19.392H445.312l-1.728 0.192c-2.688 0.32-16.64 2.496-31.296 11.072-22.208 13.12-34.496 34.432-34.496 59.904 0 19.712 5.76 37.76 16.704 52.224 11.52 15.296 27.776 25.472 47.104 29.44l16.32 3.584c14.464 3.072 31.68 6.784 49.92 10.24l-6.144 4.608H339.84a3484.288 3484.288 0 0 1-118.464-93.184l-0.896-0.64c-35.2-27.072-68.224-37.376-98.304-30.656a81.28 81.28 0 0 0-52.928 39.616l-0.384 0.896c-8.576 17.92-12.416 45.312 4.8 63.488l0.64 0.704 0.64 0.64c44.032 40.32 195.136 182.272 204.736 192.384 15.36 16.064 36.288 16.576 49.28 13.76h308.224c12.8 0 21.248 6.912 23.04 8.448l0.96 0.96c4.864 4.608 47.808 44.288 65.408 56.96 14.592 11.968 27.52 15.36 37.76 15.36a45.056 45.056 0 0 0 37.504-20.8l136.96-154.112a43.52 43.52 0 0 0 16.64-20.096 44.288 44.288 0 0 0-8.192-48.64z m-185.792 186.88l-1.216-1.024-0.896-0.768-1.024-0.704c-10.24-7.232-42.176-36.032-60.16-52.608a89.152 89.152 0 0 0-60.928-24.128h-311.68l-8.32 1.536-0.192-0.192h-0.064c-18.624-18.56-155.904-147.52-201.344-189.248a32.768 32.768 0 0 1 1.536-5.12 28.224 28.224 0 0 1 16.64-11.456c13.248-2.88 32.256 4.288 53.44 20.48 52.672 44.16 124.416 97.792 127.488 100.096l7.232 5.44h197.376l59.712-43.84c21.504-15.104 19.072-32.064 16.96-38.784-1.472-4.8-8.064-20.16-30.592-21.184-33.088-4.416-69.376-12.288-96.064-17.984-6.208-1.28-11.84-2.56-16.704-3.648-18.88-3.84-20.928-21.44-20.928-28.864 0-6.08 1.92-9.6 7.04-12.8 3.84-2.56 8.32-3.84 10.752-4.416h265.152c0.64 0.32 1.92 1.024 3.584 2.688 5.76 6.016 41.088 38.72 98.496 91.712 30.976 28.736 68.224 63.04 84.224 78.016l-139.52 156.8z m-576.64-485.76l62.336 62.336c10.24 10.24 26.624 10.24 36.8 0a25.984 25.984 0 0 0 0-36.8l-19.072-19.008h397.568a25.92 25.92 0 1 0 0-51.968H264.832l18.944-19.008a25.984 25.984 0 0 0-18.368-44.48 25.984 25.984 0 0 0-18.432 7.68l-62.272 62.272a25.856 25.856 0 0 0-7.616 19.52c-0.192 7.04 2.304 14.08 7.68 19.52z m174.848-157.44h397.568l-19.072 19.008a25.984 25.984 0 0 0 0 36.8c10.24 10.24 26.56 10.24 36.8 0l62.272-62.336a25.856 25.856 0 0 0 7.616-19.456 25.728 25.728 0 0 0-7.616-19.52l-62.272-62.336a25.984 25.984 0 0 0-36.8 0 25.984 25.984 0 0 0 0 36.8l19.072 19.008H359.68a25.92 25.92 0 1 0 0 52.032z" /></svg>