<?xml version="1.0" standalone="no"?><!DOCTYPE svg PUBLIC "-//W3C//DTD SVG 1.1//EN" "http://www.w3.org/Graphics/SVG/1.1/DTD/svg11.dtd"><svg class="icon" width="100px" height="100.00px" viewBox="0 0 1024 1024" version="1.1" xmlns="http://www.w3.org/2000/svg"><path d="M262.4 243.2c-12.8 0-25.6-12.8-25.6-25.6s12.8-25.6 25.6-25.6h499.2c12.8 0 25.6 12.8 25.6 25.6s-12.8 25.6-25.6 25.6H262.4z m0 108.8c-12.8 0-25.6-12.8-25.6-32 0-12.8 12.8-25.6 25.6-25.6h499.2c12.8 0 25.6 12.8 25.6 25.6s-12.8 25.6-25.6 25.6H262.4v6.4zM179.2 960h665.6c19.2 0 38.4-6.4 51.2-19.2 12.8-12.8 19.2-32 19.2-51.2V134.4c0-19.2-6.4-38.4-19.2-51.2-12.8-12.8-32-19.2-51.2-19.2H179.2c-38.4 0-70.4 32-70.4 70.4v755.2c0 19.2 6.4 38.4 19.2 51.2 12.8 12.8 32 19.2 51.2 19.2z m0-832l672-6.4 6.4 768-678.4 12.8V128zM358.4 480l102.4 102.4h-64c-12.8 0-25.6 12.8-25.6 25.6s12.8 25.6 25.6 25.6h96v38.4H396.8c-12.8 0-25.6 12.8-25.6 25.6s12.8 25.6 25.6 25.6h96v57.6c0 12.8 12.8 25.6 25.6 25.6s25.6-12.8 25.6-25.6v-57.6h89.6c12.8 0 25.6-12.8 25.6-25.6s-12.8-25.6-25.6-25.6H537.6v-38.4h89.6c12.8 0 25.6-12.8 25.6-25.6s-12.8-25.6-25.6-25.6h-64l96-102.4c6.4-6.4 6.4-12.8 6.4-19.2 0-6.4-6.4-12.8-12.8-19.2-12.8-6.4-25.6-6.4-38.4 6.4L512 569.6 396.8 454.4c-6.4-12.8-25.6-12.8-32-6.4-6.4 0-12.8 6.4-12.8 12.8s0 12.8 6.4 19.2z" /></svg>