<?xml version="1.0" standalone="no"?><!DOCTYPE svg PUBLIC "-//W3C//DTD SVG 1.1//EN" "http://www.w3.org/Graphics/SVG/1.1/DTD/svg11.dtd"><svg class="icon" width="100px" height="100.00px" viewBox="0 0 1024 1024" version="1.1" xmlns="http://www.w3.org/2000/svg"><path d="M850.176 64L992 416H896V512h-64V416H192V896h192v64H128V416H32L174.4 64h675.84-0.064zM672 448c76.16 0 137.856 61.12 137.856 136.512a136.32 136.32 0 0 1-69.312 118.528l27.968 69.248H896V960H448v-187.712h127.424l28.032-69.248a136.32 136.32 0 0 1-69.312-118.528C534.144 509.12 595.84 448 672 448z m0 256.128l-53.44 132.16L512 836.224V896h320v-59.776h-106.688l-53.312-132.096zM672 512c-40.96 0-73.856 32.64-73.856 72.512 0 23.296 11.2 44.608 29.696 58.176l7.232 4.672 36.864 20.992 36.992-20.992c20.224-11.52 33.664-31.552 36.416-54.208l0.512-8.64C745.856 544.64 712.896 512 672 512z m134.912-384.064H217.536l-90.624 224h770.24l-90.24-224z" /></svg>