<?xml version="1.0" standalone="no"?><!DOCTYPE svg PUBLIC "-//W3C//DTD SVG 1.1//EN" "http://www.w3.org/Graphics/SVG/1.1/DTD/svg11.dtd"><svg class="icon" width="100px" height="100.00px" viewBox="0 0 1024 1024" version="1.1" xmlns="http://www.w3.org/2000/svg"><path d="M895.616 319.872H356.48a64 64 0 0 1-61.824-47.424L256.256 128c-6.72-30.592-31.36-64-65.92-64H64.32v64h76.928c44.992 0 56.96 24.96 66.944 65.92l109.248 449.6c9.344 35.968 37.248 59.968 66.56 59.968h447.68l127.872-318.4c0-22.592 0-65.28-64-65.28z m-107.2 319.808L386.88 640l-67.84-261.888c11.904 3.712 24.448 5.632 37.44 5.632h534.784l-102.848 255.872z m-372.352 127.808a96 96 0 1 0 0.064 191.872 96 96 0 0 0 0-191.872z m0 127.808a31.808 31.808 0 1 1 0-63.616 31.808 31.808 0 0 1 0 63.616z m319.296-127.808a96 96 0 1 0 0 191.872 96 96 0 0 0 0-191.872z m0 127.808a31.808 31.808 0 1 1 0-63.616 31.808 31.808 0 0 1 0 63.616z" /></svg>