<?xml version="1.0" standalone="no"?><!DOCTYPE svg PUBLIC "-//W3C//DTD SVG 1.1//EN" "http://www.w3.org/Graphics/SVG/1.1/DTD/svg11.dtd"><svg class="icon" width="100px" height="100.00px" viewBox="0 0 1024 1024" version="1.1" xmlns="http://www.w3.org/2000/svg"><path d="M293.248 400.32H665.6a26.88 26.88 0 0 0 27.904-27.968 26.88 26.88 0 0 0-27.904-27.904H293.248a26.88 26.88 0 0 0-27.968 27.904 26.88 26.88 0 0 0 27.968 27.968z m0 100.032H665.6a26.88 26.88 0 0 0 27.904-27.904 26.88 26.88 0 0 0-27.904-27.968H293.248a26.88 26.88 0 0 0-27.968 27.968 26.88 26.88 0 0 0 27.968 27.904z m0 102.4H479.36a26.88 26.88 0 0 0 27.904-27.904 26.88 26.88 0 0 0-27.904-27.968H293.12a26.88 26.88 0 0 0-27.904 27.968 26.88 26.88 0 0 0 27.968 27.904z m116.352 44.224H293.248a26.88 26.88 0 0 0-27.968 27.904 26.88 26.88 0 0 0 27.968 27.968H409.6a26.88 26.88 0 0 0 27.904-27.968 28.288 28.288 0 0 0-27.904-27.904zM816.896 628.352V186.24c0-41.856-32.64-74.496-74.496-74.496h-69.76a73.856 73.856 0 0 0-69.888-46.528H370.048c-30.272 0-58.24 18.624-69.824 46.528H230.4c-41.92 0-74.496 32.64-74.496 74.496v698.24c0 41.856 32.64 74.432 74.496 74.432h512c37.248 0 67.52-27.968 74.496-62.848 32.576-34.88 53.504-81.472 53.504-135.04-2.304-51.2-20.928-97.664-53.504-132.608z m-146.624 274.624a141.056 141.056 0 0 1-141.952-141.952c0-79.104 62.784-141.952 141.952-141.952 79.104 0 141.952 62.848 141.952 141.952a141.056 141.056 0 0 1-141.952 141.952zM351.36 139.648c0-9.344 9.28-18.624 18.56-18.624h232.768c9.344 0 18.624 9.28 18.624 18.56v23.296c0 9.344-9.28 18.624-18.56 18.624H369.984a20.032 20.032 0 0 1-18.624-18.56v-23.296zM230.4 902.976a20.032 20.032 0 0 1-18.56-18.56V186.112c0-9.28 9.28-18.56 18.56-18.56h65.152c2.368 39.488 34.944 69.76 74.496 69.76h232.704c39.552 0 72.128-30.272 74.496-69.76H742.4c9.28 0 18.56 9.28 18.56 18.56v400.32a197.632 197.632 0 0 0-286.208 176.832c0 55.872 23.296 104.768 60.544 141.952H230.4v-2.304zM740.096 733.12h-41.92V691.2a26.88 26.88 0 0 0-27.904-27.904 26.88 26.88 0 0 0-27.968 27.904v41.92h-41.856a26.88 26.88 0 0 0-27.968 27.904 26.88 26.88 0 0 0 27.968 27.904h41.856v41.92a26.88 26.88 0 0 0 27.968 27.904 26.88 26.88 0 0 0 27.904-27.904v-41.92h41.92a26.88 26.88 0 0 0 27.904-27.904 26.88 26.88 0 0 0-27.904-27.904z" /></svg>