<?xml version="1.0" standalone="no"?><!DOCTYPE svg PUBLIC "-//W3C//DTD SVG 1.1//EN" "http://www.w3.org/Graphics/SVG/1.1/DTD/svg11.dtd"><svg class="icon" width="100px" height="100.00px" viewBox="0 0 1024 1024" version="1.1" xmlns="http://www.w3.org/2000/svg"><path d="M784 164.416c-8-6.4-14.016-6.4-22.016-6.4 8 0 16 0 22.016 6.4z m28.416 8c-3.2 0-3.2-6.4-6.4-6.4 3.2 0 6.4 6.4 6.4 6.4z m43.968 33.6c-2.112-1.984-4.224-6.016-6.4-8 2.176 3.968 4.288 6.016 6.4 8zM896 812.032H868.032V249.92c0-8 0-14.016-2.048-22.016 1.984 6.016 1.984 14.08 1.984 22.016v561.984H896z m17.984-6.016c-1.984 3.2-6.016 3.2-8 6.4 1.984-3.2 6.016-3.2 8-6.4zM960 57.984a115.648 115.648 0 0 0-72-24H262.016c-28.032 0-54.016 8-72 24-20.032 17.984-32 41.984-32 65.984v32h-20.032c-27.968 0-54.016 8.064-72 24.064C44.032 199.936 32 224 32 249.92v649.984c0 26.048 12.032 50.048 32 66.048 20.032 16 46.016 24 72 24h624c28.032 0 54.016-8 72-24 20.032-17.984 33.984-41.984 33.984-65.984v-32h17.984c28.032 0 54.016-8.064 72.064-24.064 19.968-17.92 32-41.984 32-65.92V125.952c3.968-26.048-8.064-50.048-28.032-68.032z m-145.984 840c0 20.032-24 36.032-52.032 36.032h-624c-27.968 0-51.968-16-51.968-36.032V249.984c0-19.968 24-35.968 51.968-35.968h624c28.032 0 52.032 16 52.032 35.968v648z m123.968-123.968c0 8-3.968 16-9.984 22.016l-1.984 1.92c-1.984 2.048-4.032 4.032-6.016 4.032 0 0-1.984 0-1.984 1.984 0 2.048-1.984 0-1.984 2.048 0 0-2.048 0-2.048 1.984h-1.984c-1.984 1.984-6.016 1.984-8 4.032h-1.984-1.984c-2.048 0-4.032 0-6.016 1.92H865.92V250.048c0-8 0-14.016-1.984-22.016 0-1.92 0-1.92-1.984-3.968 0-1.984 0-1.984-1.984-4.032 0-1.92 0-1.92-2.048-3.968 0-1.984-1.984-1.984-1.984-4.032-1.984-1.92-1.984-3.968-4.032-5.952-1.92-1.984-3.968-6.016-5.952-8-1.984-4.032-6.016-6.016-8-9.984-1.984-2.048-4.032-4.032-8-6.016l-4.032-4.032-1.984-1.984c-1.984 0-1.984-1.984-4.032-1.984-3.968-1.984-9.984-6.016-13.952-8-1.984 0-1.984-1.984-4.032-1.984-1.984 0-3.968-2.048-6.016-2.048h-1.92c-4.032 0-6.08-1.984-10.048-1.984h-6.016c-8-1.984-14.016-1.984-22.016-1.984h-545.92v-32c0-4.032 0-8 1.92-12.032 2.048-3.968 4.032-5.952 8.064-9.984 9.984-9.984 23.936-16 41.984-16h624c27.968 0 51.968 16 51.968 36.032v649.984zM171.968 270.016H574.08v53.952H172.032V270.08z m490.048 27.968c0-16 11.968-27.968 27.968-29.952 16 0 28.032 11.968 30.016 27.968v1.984c0 16-12.032 28.032-28.032 30.016-16 0-27.968-12.032-29.952-28.032v-1.92z m-576 74.048h728v53.952H86.016v-53.952z" /></svg>