<?xml version="1.0" standalone="no"?><!DOCTYPE svg PUBLIC "-//W3C//DTD SVG 1.1//EN" "http://www.w3.org/Graphics/SVG/1.1/DTD/svg11.dtd"><svg class="icon" width="100px" height="100.00px" viewBox="0 0 1024 1024" version="1.1" xmlns="http://www.w3.org/2000/svg"><path d="M379.84 102.08H185.152c-48.576 0-87.936 39.424-88 88v194.56c0.064 48.64 39.424 88 88 88.064h194.688c48.576 0 87.936-39.424 88-88V190.08c-0.064-48.64-39.424-87.936-88-88zM419.84 384.64c0 22.08-17.92 40-40 40H185.152a40.064 40.064 0 0 1-40-40V190.08c0-22.08 17.92-40 40-40h194.688c22.08 0 40 17.92 40 40v194.56z m-40 166.592H185.152c-48.576 0-87.936 39.424-88 88v194.624c0.064 48.64 39.424 87.936 88 88h194.688c48.576 0 87.936-39.424 88-88V639.36c-0.064-48.64-39.424-88-88-88.064z m40 282.624c0 22.08-17.92 40-40 40H185.152a40 40 0 0 1-40-40V639.36c0-22.144 17.92-40.064 40-40.064h194.688c22.08 0 40 17.92 40 40v194.624z m419.008-731.84h-194.688c-48.576 0-87.936 39.424-88 88v194.56c0.064 48.64 39.424 88 88 88.064h194.688c48.576 0 87.936-39.424 88-88V190.08c-0.064-48.64-39.424-87.936-88-88z m40 282.624c0 22.08-17.92 40-40 40h-194.688a40 40 0 0 1-40-40V190.08c0-22.08 17.92-40 40-40h194.688c22.08 0 40 17.92 40 40v194.56z m44.736 312a44.416 44.416 0 0 0-37.952-36.992l-1.984-0.256a30.592 30.592 0 0 1-25.92-40.96l0.64-2.176a44.288 44.288 0 0 0-20.48-52.352l-37.888-20.992a44.16 44.16 0 0 0-51.2 6.016l-1.408 1.28a100.992 100.992 0 0 1-9.536 7.744c-8.128 5.76-13.632 7.232-15.552 7.232s-7.552-1.536-15.68-7.296a89.856 89.856 0 0 1-9.152-7.552l-1.408-1.28a44.032 44.032 0 0 0-51.712-6.784l-39.36 21.568a44.16 44.16 0 0 0-20.672 52.736l0.64 2.112a31.296 31.296 0 0 1 1.856 8.96 32 32 0 0 1-27.776 31.744l-1.92 0.256a44.48 44.48 0 0 0-37.952 36.928l-0.32 1.984a223.296 223.296 0 0 0-3.008 32.576c0 11.2 1.6 23.808 3.008 32.448l0.32 1.984c3.072 19.392 18.56 34.432 37.952 36.992l2.048 0.256a30.592 30.592 0 0 1 25.856 40.832l-0.704 2.112a44.224 44.224 0 0 0 20.352 52.544l36.736 20.544c16.96 9.6 38.144 6.848 52.16-6.72l1.472-1.344c2.944-2.88 6.08-5.504 9.344-7.936 8.32-6.08 13.952-7.68 16-7.68 0.832 0 5.888 0.32 16.128 7.936 3.2 2.432 6.336 5.056 9.216 7.872l1.408 1.408c13.952 13.632 35.2 16.512 52.288 7.168l38.336-21.12a44.224 44.224 0 0 0 20.672-52.48l-0.704-2.176a30.592 30.592 0 0 1 25.856-40.96l2.048-0.256a44.416 44.416 0 0 0 37.952-36.992l0.32-2.048c1.792-10.688 2.816-21.568 3.008-32.448a222.336 222.336 0 0 0-3.008-32.512l-0.32-1.92z m-47.04 58.752a80.064 80.064 0 0 0-68.672 79.104c0.128 8 1.472 15.872 3.968 23.424l-33.024 18.176a136.512 136.512 0 0 0-13.824-11.584c-15.552-11.52-30.592-17.408-44.672-17.408-14.08 0-28.928 5.76-44.288 17.024a143.36 143.36 0 0 0-13.696 11.456l-31.488-17.664c2.496-7.552 3.84-15.424 3.968-23.424 0-39.744-29.312-73.472-68.672-79.168a131.072 131.072 0 0 1 0-48.448A80.128 80.128 0 0 0 634.88 627.776a77.696 77.696 0 0 0-3.904-23.296l34.112-18.752c4.352 4.032 8.96 7.808 13.76 11.264 15.168 10.816 29.824 16.256 43.52 16.256 13.568 0 28.096-5.376 43.2-16l0.128-0.064c4.736-3.392 9.216-7.04 13.504-10.88l32.64 18.112c-2.496 7.488-3.84 15.36-3.968 23.36 0.064 39.808 29.376 73.6 68.8 79.232 1.28 8 2.048 16.128 2.24 24.32a173.504 173.504 0 0 1-2.24 24.128zM721.28 659.392a71.552 71.552 0 1 0 0.064 143.168 71.552 71.552 0 0 0 0-143.168z m0 95.168a23.552 23.552 0 1 1 0.064-47.168 23.552 23.552 0 0 1 0 47.168z" /></svg>