<?xml version="1.0" standalone="no"?><!DOCTYPE svg PUBLIC "-//W3C//DTD SVG 1.1//EN" "http://www.w3.org/Graphics/SVG/1.1/DTD/svg11.dtd"><svg class="icon" width="100px" height="100.00px" viewBox="0 0 1024 1024" version="1.1" xmlns="http://www.w3.org/2000/svg"><path d="M435.392 871.68a19.136 19.136 0 0 1-15.104-11.2l-36.096-81.92a88.512 88.512 0 0 0-91.008-52.48l-88.96 9.728a18.944 18.944 0 0 1-17.28-7.488 364.288 364.288 0 0 1-44.032-76.16 18.752 18.752 0 0 1 2.112-18.752l52.864-72.32c23.04-31.36 23.04-73.6 0-104.96l-52.864-72.32a19.2 19.2 0 0 1-2.112-18.688c11.52-27.008 26.368-52.608 44.096-76.16a19.2 19.2 0 0 1 17.216-7.552l88.96 9.664a88.64 88.64 0 0 0 91.008-52.48l36.096-81.92a19.136 19.136 0 0 1 15.104-11.2 379.712 379.712 0 0 1 88.192 0c6.592 0.832 12.416 5.12 15.104 11.2l36.096 81.92c15.744 35.584 52.288 56.704 91.008 52.48l88.96-9.664a19.2 19.2 0 0 1 17.28 7.488c17.664 23.488 32.576 49.216 44.096 76.16a19.2 19.2 0 0 1-2.112 18.752l-52.992 72.064c-23.04 31.424-23.04 73.6 0 105.024l14.72 20.288h86.848l-45.12-61.568a18.752 18.752 0 0 1 0-22.336l52.928-72.32c18.56-25.152 22.272-58.752 9.984-87.552a439.552 439.552 0 0 0-52.48-90.816c-18.816-24.896-49.728-38.4-80.704-35.008l-88.96 9.728a18.752 18.752 0 0 1-19.328-11.2l-36.096-81.92a89.344 89.344 0 0 0-70.848-52.416 436.096 436.096 0 0 0-104.768 0c-31.104 3.712-58.24 23.808-70.784 52.48l-36.096 81.856a18.752 18.752 0 0 1-19.328 11.2l-88.96-9.728a89.216 89.216 0 0 0-80.704 35.008c-21.12 28.16-38.848 58.624-52.48 90.816-12.352 28.8-8.576 62.4 9.92 87.616l52.928 72.32a18.752 18.752 0 0 1 0 22.272l-52.928 72.32c-18.496 25.152-22.272 58.752-9.984 87.552 13.824 32.192 31.36 62.72 52.48 90.816a89.536 89.536 0 0 0 80.704 35.008l89.024-9.728a18.752 18.752 0 0 1 19.328 11.2l36.096 81.92c12.608 28.608 39.808 48.64 70.784 52.416a436.096 436.096 0 0 0 68.032 2.752v-69.888a380.16 380.16 0 0 1-59.776-2.304zM359.68 504.96c0-66.88 54.4-121.28 121.344-121.28 66.88 0 121.28 54.4 121.28 121.344 0 28.864-10.112 55.36-27.008 76.16h81.216a191.488 191.488 0 0 0-175.36-267.52 191.488 191.488 0 0 0-191.36 191.36 191.488 191.488 0 0 0 205.44 190.72V625.536A121.408 121.408 0 0 1 359.68 504.96z m563.328 131.648H586.496a35.008 35.008 0 0 0 0 70.016h336.512a35.008 35.008 0 0 0 0-70.016z m0 122.368H586.496a35.008 35.008 0 0 0 0 70.016h336.512a35.008 35.008 0 0 0 0-70.016z m0 122.496H586.496a35.008 35.008 0 0 0 0 70.016h336.512a35.008 35.008 0 0 0 0-70.016z" /></svg>