<?xml version="1.0" standalone="no"?><!DOCTYPE svg PUBLIC "-//W3C//DTD SVG 1.1//EN" "http://www.w3.org/Graphics/SVG/1.1/DTD/svg11.dtd"><svg class="icon" width="100px" height="100.00px" viewBox="0 0 1024 1024" version="1.1" xmlns="http://www.w3.org/2000/svg"><path d="M763.328 937.472H260.672c-49.6 0-89.984-39.296-89.984-87.68V172.992c0-48.384 40.384-87.68 89.984-87.68h50.752a29.952 29.952 0 1 1 0 59.968h-50.752c-16.448 0-29.952 12.416-29.952 27.712v676.8c0 15.36 13.44 27.712 29.952 27.712h502.72c16.512 0 30.016-12.416 30.016-27.712V172.992c0-15.296-13.504-27.712-30.016-27.712h-50.688a29.952 29.952 0 1 1 0-59.968h50.688c49.6 0 89.984 39.296 89.984 87.68v676.8c-0.064 48.384-40.32 87.68-90.048 87.68zM607.104 145.28H416.896a29.952 29.952 0 1 1 0-59.968h190.336a29.952 29.952 0 1 1-0.128 59.968zM385.92 440v-45.184h-52.096c-10.304-1.024-16-6.336-16.896-16 0.896-9.728 6.592-15.104 16.896-16h52.096V337.92h-52.096c-10.304-0.96-16-6.272-16.896-16 0.896-9.664 6.592-15.104 16.896-16h29.568l-45.12-65.6a25.408 25.408 0 0 1-5.568-16c1.92-16.512 10.816-25.664 26.816-27.712a27.712 27.712 0 0 1 21.12 11.712l52.032 77.312 52.096-77.312a27.712 27.712 0 0 1 21.12-11.712c16 2.048 24.96 11.2 26.816 27.712 0 5.76-1.92 11.2-5.632 16L462.08 305.984h29.568c10.304 1.024 16 6.336 16.896 16-0.896 9.728-6.592 15.104-16.896 16h-52.096v24.832h52.096c10.304 0.96 16 6.272 16.896 16-0.896 9.664-6.592 15.104-16.896 16h-52.096v45.184c-0.896 16.512-9.856 24.832-26.816 24.832s-25.856-8.32-26.752-24.832z m-45.952 155.328h343.68c12.928 0 23.552-10.88 23.552-24.512a24 24 0 0 0-23.68-24.512H340.032c-13.12 0-23.68 10.88-23.68 24.512a24.128 24.128 0 0 0 23.68 24.512z m343.68 73.792H340.032c-13.12 0-23.68 10.88-23.68 24.512 0 13.568 10.496 24.448 23.68 24.448h343.488c12.992 0 23.616-10.88 23.616-24.512a24.128 24.128 0 0 0-23.616-24.448z" /></svg>