<?xml version="1.0" standalone="no"?><!DOCTYPE svg PUBLIC "-//W3C//DTD SVG 1.1//EN" "http://www.w3.org/Graphics/SVG/1.1/DTD/svg11.dtd"><svg class="icon" width="100px" height="100.00px" viewBox="0 0 1024 1024" version="1.1" xmlns="http://www.w3.org/2000/svg"><path d="M238.08 520.512a31.936 31.936 0 0 1 0-63.808h292.992a31.936 31.936 0 0 1 0 63.808H238.08z m0 213.12a31.936 31.936 0 0 1 0-63.808h186.496a31.936 31.936 0 0 1 0 63.808H238.08z m3.52-418.752a31.936 31.936 0 0 1 0-63.808h426.112a31.936 31.936 0 0 1 0.064 63.808H241.6zM160 926.592c-46.912 0-85.12-38.208-85.12-85.12V149.12C74.88 102.208 113.088 64 160 64h585.984c46.912 0 85.12 38.208 85.12 85.12v297.408a31.936 31.936 0 0 1-63.808 0V149.12a21.44 21.44 0 0 0-21.376-21.44H160a21.44 21.44 0 0 0-21.376 21.44v692.352c0 11.84 9.6 21.44 21.376 21.44h304.512a31.808 31.808 0 0 1 0 63.616H160v0.064zM917.184 959.872a31.616 31.616 0 0 1-22.464-9.28l-78.528-78.464-5.312-0.512-0.64 0.384a189.248 189.248 0 0 1-106.88 33.024 191.04 191.04 0 0 1-190.848-190.848 191.04 191.04 0 0 1 190.784-190.72 191.04 191.04 0 0 1 190.784 190.72c0 38.208-11.392 75.2-32.96 107.008l-0.448 0.64 0.512 5.248 78.528 78.528a31.616 31.616 0 0 1-0.128 44.992 31.232 31.232 0 0 1-22.4 9.28z m-213.76-372.864a127.36 127.36 0 0 0-127.232 127.168 127.36 127.36 0 0 0 127.232 127.232 127.36 127.36 0 0 0 127.168-127.232 127.36 127.36 0 0 0-127.168-127.168z" /></svg>