<?xml version="1.0" standalone="no"?><!DOCTYPE svg PUBLIC "-//W3C//DTD SVG 1.1//EN" "http://www.w3.org/Graphics/SVG/1.1/DTD/svg11.dtd"><svg class="icon" width="100px" height="100.00px" viewBox="0 0 1024 1024" version="1.1" xmlns="http://www.w3.org/2000/svg"><path d="M46.272 420.096a508.416 508.416 0 0 0-21.12 32.832c-18.624 31.744-21.056 46.528-21.056 55.872v210.688c0 36.608 29.76 66.368 66.368 66.368h36.736a127.424 127.424 0 0 0 123.84 100.352 127.36 127.36 0 0 0 123.84-100.352h16.64c14.656 0 28.672-4.736 40.128-13.504 11.52 8.768 25.536 13.504 40.192 13.504h177.152a127.36 127.36 0 0 0 123.84 100.352 127.36 127.36 0 0 0 123.84-100.352h76.8c36.672 0 66.432-29.76 66.432-66.368V197.76c0-36.608-29.76-66.368-66.368-66.368h-501.76c-36.608 0-66.368 29.76-66.368 66.368V273.28a65.792 65.792 0 0 0-13.952-1.472H200.96c-11.072 0-26.688 4.096-58.752 34.368a630.592 630.592 0 0 0-45.888 49.024l-0.128 0.192-12.16 14.336h0.256l-1.536 1.92c-12.992 16-25.6 32.768-36.48 48.384 0.064 0 0.064 0 0 0z m706.56 413.632a74.24 74.24 0 0 1-74.176-74.112 74.24 74.24 0 1 1 74.112 74.112z m-314.88-495.488V197.76c0-7.68 6.208-13.952 13.888-13.952h501.696c7.68 0 13.888 6.272 13.888 13.952v521.792c0 7.68-6.208 13.888-13.888 13.888h-76.928a126.272 126.272 0 0 0-120.064-100.288h-6.208-1.408a126.4 126.4 0 0 0-119.936 100.224H451.84a13.952 13.952 0 0 1-13.952-13.888V338.24zM231.04 833.728a74.24 74.24 0 0 1-74.112-74.112c0-40.896 33.28-74.112 74.112-74.112 40.832 0 74.112 33.28 74.112 74.112a74.24 74.24 0 0 1-74.112 74.112zM56.448 719.488V565.12h194.56c36.544 0 66.304-29.76 66.304-66.368V418.56c0-36.608-29.76-66.368-66.368-66.368H170.112l3.968-3.968c17.92-17.408 26.496-22.528 29.248-23.808h168.064c7.68 0 13.952 6.208 13.952 13.888v381.056c0 7.68-6.272 13.952-13.952 13.952h-16.64a127.488 127.488 0 0 0-113.024-99.84l-1.28-0.128h-0.064v0.192-0.192h-0.192v0.192l-0.128-0.192v0.128-0.128l-0.256 0.128v-0.128h-0.128v0.064l-0.896-0.128h-4.288v0.064l-0.128-0.128v0.192-0.192l-0.192 0.192-0.128-0.192v0.192h-0.064l-0.128-0.128v0.064-0.064l-0.192 0.064h-6.272v-0.128 0.128h-0.384-0.128v-0.128 0.128H225.088l-0.704 0.064h-1.152l-0.896 0.128h-0.128l-0.192 0.064-0.192 0.064h-0.192l-0.128 0.064v-0.256a127.552 127.552 0 0 0-114.304 99.968h-36.672a13.952 13.952 0 0 1-13.952-13.888H56.448zM56.576 512.64v-3.52c0.192-1.216 1.92-10.368 17.024-35.072l3.52-5.696-7.232-4.608 7.424 4.416-3.328-2.24 3.52 1.92a646.72 646.72 0 0 1 27.84-39.936c5.952-7.872 12.032-15.68 18.24-23.36h127.552c7.68 0 13.888 6.208 13.888 13.888v80.32c0 7.68-6.208 13.888-13.888 13.888H56.576z" /></svg>