<?xml version="1.0" standalone="no"?><!DOCTYPE svg PUBLIC "-//W3C//DTD SVG 1.1//EN" "http://www.w3.org/Graphics/SVG/1.1/DTD/svg11.dtd"><svg class="icon" width="100px" height="100.00px" viewBox="0 0 1024 1024" version="1.1" xmlns="http://www.w3.org/2000/svg"><path d="M440.32 474.624a27.968 27.968 0 0 1-21.504-9.984L318.72 345.408a28.032 28.032 0 1 1 42.88-36.032l100.096 119.232a28.032 28.032 0 0 1-21.376 46.08zM461.696 474.624a28.032 28.032 0 0 1-21.44-46.08l100.032-119.168a28.032 28.032 0 0 1 42.944 36.032L483.2 464.64a27.968 27.968 0 0 1-21.44 9.984zM575.872 492.032l-253.696-0.192a28.032 28.032 0 0 1 0-56.064L576 435.968a28.032 28.032 0 0 1 0 56.064z m0 98.688l-253.696-0.192a28.032 28.032 0 0 1 0-56.064L576 534.656a28.032 28.032 0 0 1 0 56.064zM448.96 694.784a28.032 28.032 0 0 1-28.032-28.032l0.192-209.216a28.032 28.032 0 0 1 56.064 0l-0.192 209.28a28.032 28.032 0 0 1-28.032 27.968z m316.8 264.32a28.032 28.032 0 0 1-17.024-5.76L626.752 860.16a28.032 28.032 0 0 1 34.048-44.48l101.12 77.312 146.752-166.784a28.032 28.032 0 0 1 42.048 37.056l-163.904 186.368a28.032 28.032 0 0 1-21.12 9.6zM592.384 959.616H127.424A63.616 63.616 0 0 1 64 896.128V128.64c0-35.008 28.48-63.488 63.488-63.488h643.2c35.072 0 63.552 28.48 63.552 63.488v609.472h-56.064V128.64a7.424 7.424 0 0 0-7.424-7.424H127.488a7.424 7.424 0 0 0-7.488 7.424v767.488c0 4.096 3.328 7.424 7.424 7.424h464.96v56.064z" /></svg>