<?xml version="1.0" standalone="no"?><!DOCTYPE svg PUBLIC "-//W3C//DTD SVG 1.1//EN" "http://www.w3.org/Graphics/SVG/1.1/DTD/svg11.dtd"><svg class="icon" width="100px" height="100.00px" viewBox="0 0 1024 1024" version="1.1" xmlns="http://www.w3.org/2000/svg"><path d="M88 284.032a32 32 0 0 1 32-32h784a32 32 0 0 1 32 32v536a96 96 0 0 1-96 96H184a96 96 0 0 1-96-96V283.968z m64 32v504a32 32 0 0 0 32 32h656a32 32 0 0 0 32-32V315.904H152z m3.84-155.776a98.048 98.048 0 0 1 84.48-48.256h543.36c34.752 0 66.88 18.304 84.48 48.192l-27.52 16.256 27.52-16.256 63.36 107.52a32 32 0 0 1-27.52 48.32H120a32 32 0 0 1-27.52-48.256l63.36-107.52z m84.48 15.744c-12.16 0-23.296 6.4-29.376 16.704l-34.944 59.264h672l-34.944-59.2a34.048 34.048 0 0 0-29.376-16.768h-543.36z m552.32 353.344a32 32 0 0 1 0 45.248L585.216 782.08a64 64 0 0 1-90.56 0l-85.312-85.376a32 32 0 1 1 45.248-45.248l85.376 85.312 207.36-207.36a32 32 0 0 1 45.248 0h0.064zM212.032 420.032a32 32 0 0 1 32-32h377.984a32 32 0 0 1 0 64H244.032a32 32 0 0 1-32-32z m0 148.032a32 32 0 0 1 32-32h241.92a32 32 0 0 1 0 64h-241.92a32 32 0 0 1-32-32z" /></svg>