<?xml version="1.0" standalone="no"?><!DOCTYPE svg PUBLIC "-//W3C//DTD SVG 1.1//EN" "http://www.w3.org/Graphics/SVG/1.1/DTD/svg11.dtd"><svg class="icon" width="100px" height="100.00px" viewBox="0 0 1024 1024" version="1.1" xmlns="http://www.w3.org/2000/svg"><path d="M708.607877 0l-5.631996 0.256V0H85.504267a38.271976 38.271976 0 0 0-38.399976 38.015976v298.047814h63.99996V63.99996h550.975655v231.039856l1.919999 33.791978h279.167826V959.9994H524.287992v63.99996h444.479723a38.271976 38.271976 0 0 0 38.399976-38.015976V281.279824L708.607877 0z m17.407989 264.831834V104.319935l170.367894 160.511899h-170.367894zM492.992012 507.135683c0-73.919954-119.807925-112.63993-238.079851-112.63993-118.335926 0-238.079851 38.719976-238.079852 112.63993 0.831999 23.615985 12.607992 45.439972 31.871981 59.135963a76.991952 76.991952 0 0 0-31.359981 58.687963c0.64 23.039986 11.967993 44.479972 30.463981 58.111964a76.607952 76.607952 0 0 0-30.527981 57.919964c0.768 23.231985 12.159992 44.799972 30.911981 58.495963-18.559988 13.823991-29.951981 35.263978-30.911981 58.431964 0 73.919954 119.487925 112.63993 237.567852 112.639929 118.079926 0 237.631851-38.719976 237.631851-112.639929a76.607952 76.607952 0 0 0-30.847981-58.431964c18.751988-13.631991 30.079981-35.199978 30.847981-58.431963a76.607952 76.607952 0 0 0-30.463981-57.919964c18.559988-13.695991 29.759981-35.071978 30.463981-58.111964a76.927952 76.927952 0 0 0-31.42398-58.815963c19.071988-13.759991 30.847981-35.519978 31.87198-59.071963h0.064z m-238.079851-48.63997c114.239929 0 174.079891 36.159977 174.079891 48.63997 0 1.919999-8.319995 15.67999-44.799972 28.927982a392.063755 392.063755 0 0 1-129.279919 19.583988c-114.239929 0-174.079891-36.095977-174.079892-48.51197 0-12.479992 59.839963-48.63997 174.079892-48.63997z m0 161.1519a469.567707 469.567707 0 0 0 139.071913-19.839988c0.192 0.128 0.32 0.32 0.511999 0.384 27.775983 12.031992 33.983979 23.231985 33.983979 24.767984 0 12.479992-59.647963 48.63997-173.567891 48.63997-113.919929 0-173.631891-36.159977-173.631892-48.63997 0-1.663999 6.719996-13.055992 34.815978-24.959984 45.055972 13.439992 91.839943 20.031987 138.815914 19.647988z m140.927912 214.079866c27.007983 11.903993 32.63998 22.527986 32.639979 24.127985 0 12.479992-59.647963 48.63997-173.567891 48.639969-113.919929 0-173.631891-36.159977-173.631892-48.639969 0-1.471999 6.015996-12.351992 32.57598-24.127985 0.192-0.064 0.32-0.32 0.575999-0.384a466.495708 466.495708 0 0 0 140.479913 20.287987 466.559708 466.559708 0 0 0 140.415912-20.287987l0.512 0.384z m32.639979-92.671942c0 12.479992-59.647963 48.57597-173.567891 48.575969-113.919929 0-173.631891-36.095977-173.631892-48.575969 0-1.599999 6.271996-12.351992 32.38398-23.999985 45.759971 14.079991 93.439942 20.991987 141.247912 20.543987a465.663709 465.663709 0 0 0 141.183911-20.543987c26.175984 11.647993 32.38398 22.399986 32.38398 23.999985z" /></svg>