<?xml version="1.0" standalone="no"?><!DOCTYPE svg PUBLIC "-//W3C//DTD SVG 1.1//EN" "http://www.w3.org/Graphics/SVG/1.1/DTD/svg11.dtd"><svg class="icon" width="100px" height="100.00px" viewBox="0 0 1024 1024" version="1.1" xmlns="http://www.w3.org/2000/svg"><path d="M640 864l-64-128h326.4c32 0 57.6-25.6 57.6-57.6V153.6c0-32-25.6-57.6-57.6-57.6H121.6c-32 0-57.6 25.6-57.6 57.6v524.8c0 32 25.6 57.6 57.6 57.6H448l-64 128H0v64h1024v-64h-384z m-454.4-192c-32 0-57.6-25.6-57.6-57.6V217.6c0-32 25.6-57.6 57.6-57.6h652.8c32 0 57.6 25.6 57.6 57.6v396.8c0 32-25.6 57.6-57.6 57.6H185.6z" /></svg>