<?xml version="1.0" standalone="no"?><!DOCTYPE svg PUBLIC "-//W3C//DTD SVG 1.1//EN" "http://www.w3.org/Graphics/SVG/1.1/DTD/svg11.dtd"><svg class="icon" width="100px" height="100.00px" viewBox="0 0 1024 1024" version="1.1" xmlns="http://www.w3.org/2000/svg"><path d="M310.72 328.192a34.304 34.304 0 0 0-34.304-34.304h-6.144a34.304 34.304 0 0 0-34.24 34.304v1.024c0 18.88 15.296 34.304 34.24 34.304h6.144c18.88 0 34.304-15.36 34.304-34.304v-1.024z m352.384 1.024v-1.024a34.304 34.304 0 0 0-34.304-34.304h-227.2a34.304 34.304 0 0 0-34.304 34.304v1.024c0 18.88 15.36 34.304 34.304 34.304h227.2a34.432 34.432 0 0 0 34.304-34.304zM276.416 442.88h-6.144a34.304 34.304 0 1 0 0 68.608h6.144a34.304 34.304 0 1 0 0-68.608z m125.184 0a34.304 34.304 0 1 0 0 68.608h117.312a34.304 34.304 0 1 0 0-68.608H401.6zM276.416 592.64h-6.144a34.304 34.304 0 0 0-34.24 34.24v0.704c0 18.944 15.296 34.304 34.24 34.304h6.144c18.88 0 34.304-15.296 34.304-34.304v-0.64a34.304 34.304 0 0 0-34.304-34.368z m158.592 0h-33.408a34.304 34.304 0 0 0-34.304 34.24v0.704c0 18.944 15.36 34.304 34.304 34.304h33.408c18.88 0 34.304-15.296 34.304-34.304v-0.64a34.368 34.368 0 0 0-34.304-34.368zM158.912 144.448h601.664v291.2h69.44v-293.12c0-37.312-30.208-67.52-67.52-67.52H156.928c-37.312 0-67.52 30.208-67.52 67.52v725.12c0 37.312 30.208 67.52 67.52 67.52h291.2v-69.44h-289.28V144.512z m561.6 364.608a220.096 220.096 0 0 0-219.904 219.904 220.096 220.096 0 0 0 219.904 219.904 220.16 220.16 0 0 0 219.904-219.904 220.16 220.16 0 0 0-219.904-219.904z m0 388.352a168.704 168.704 0 0 1-168.512-168.448 168.704 168.704 0 0 1 168.512-168.512 168.704 168.704 0 0 1 168.512 168.512 168.704 168.704 0 0 1-168.512 168.448z m68.992-164.8h-53.376v-80.384a25.408 25.408 0 0 0-50.816 0l0.064 115.584c0 8.64 7.04 15.616 15.616 15.616h88.64a25.408 25.408 0 1 0-0.128-50.816z" /></svg>