<?xml version="1.0" standalone="no"?><!DOCTYPE svg PUBLIC "-//W3C//DTD SVG 1.1//EN" "http://www.w3.org/Graphics/SVG/1.1/DTD/svg11.dtd"><svg class="icon" width="100px" height="100.00px" viewBox="0 0 1024 1024" version="1.1" xmlns="http://www.w3.org/2000/svg"><path d="M412.032 560.96a196.16 196.16 0 0 1-196.032-196.032A196.16 196.16 0 0 1 412.032 168.96 196.16 196.16 0 0 1 608 364.928a196.16 196.16 0 0 1-196.032 196.032z m0-328a132.096 132.096 0 0 0-132.032 131.968c0 72.832 59.2 132.032 132.032 132.032A132.096 132.096 0 0 0 544 364.928 132.096 132.096 0 0 0 411.968 232.96zM726.912 960H97.024a32 32 0 0 1-32-32.192 373.952 373.952 0 0 1 101.824-256.256 345.472 345.472 0 0 1 110.08-78.144 329.6 329.6 0 0 1 135.04-28.8c37.888 0 75.136 6.4 110.72 19.008a32 32 0 1 1-21.376 60.352 266.432 266.432 0 0 0-89.344-15.36c-144.64 0-264.96 117.312-281.152 267.392h562.368a315.008 315.008 0 0 0-19.072-79.488 32 32 0 0 1 59.776-22.912c16.32 42.688 24.768 87.808 25.088 134.144a32 32 0 0 1-32 32.256zM675.648 443.52a32 32 0 0 1-12.224-61.568 131.648 131.648 0 0 0 81.536-121.984 132.096 132.096 0 0 0-219.904-98.368 32 32 0 1 1-42.688-47.744A195.648 195.648 0 0 1 612.992 64a196.16 196.16 0 0 1 162.048 306.24c-21.632 31.744-51.776 56.32-87.168 70.912a31.872 31.872 0 0 1-12.224 2.432z m252.352 411.52h-124.992a32 32 0 0 1 0-64h91.52a414.528 414.528 0 0 0-21.12-97.408 32 32 0 0 1 60.416-21.056c16.896 48.512 26.176 101.888 26.176 150.4a32 32 0 0 1-32 32z m-552 100.992a32 32 0 0 1-26.176-50.432l192-273.024a32 32 0 0 1 49.024-3.968l63.808 65.216 107.968-156.992a32 32 0 1 1 52.736 36.288l-129.984 188.992a32 32 0 0 1-49.28 4.288L572.032 700.8l-169.856 241.536a31.936 31.936 0 0 1-26.24 13.632zM889.664 408.64c-21.76 86.4-36.992 201.92-27.2 286.656l-86.656-121.088-144-37.568c82.56-21.248 184.96-76.736 257.92-128z" /></svg>