<?xml version="1.0" standalone="no"?><!DOCTYPE svg PUBLIC "-//W3C//DTD SVG 1.1//EN" "http://www.w3.org/Graphics/SVG/1.1/DTD/svg11.dtd"><svg class="icon" width="100px" height="100.00px" viewBox="0 0 1024 1024" version="1.1" xmlns="http://www.w3.org/2000/svg"><path d="M512 134.016h448v56H512v-56z m0 195.968h448v56H512v-56zM422.4 64H97.6A33.664 33.664 0 0 0 64 97.6V422.4c0 18.56 15.04 33.6 33.6 33.6H422.4c18.56 0 33.6-15.04 33.6-33.6V97.6A33.664 33.664 0 0 0 422.4 64z m-22.4 336H120V120H400V400z m22.4 168H97.6A33.664 33.664 0 0 0 64 601.6v324.8c0 18.56 15.04 33.6 33.6 33.6H422.4c18.56 0 33.6-15.04 33.6-33.6V601.6a33.664 33.664 0 0 0-33.6-33.6z m-22.4 336H120V624H400v280zM512 638.016h448v56H512v-56z m0 195.968h448v56H512v-56z" /></svg>