<?xml version="1.0" standalone="no"?><!DOCTYPE svg PUBLIC "-//W3C//DTD SVG 1.1//EN" "http://www.w3.org/Graphics/SVG/1.1/DTD/svg11.dtd"><svg class="icon" width="100px" height="100.00px" viewBox="0 0 1024 1024" version="1.1" xmlns="http://www.w3.org/2000/svg"><path d="M516.352 118.4l369.28 203.392-355.648 202.432-382.976-200.32 369.28-205.44m0-57.728a57.728 57.728 0 0 0-27.968 7.296l-369.28 205.44a57.728 57.728 0 0 0 1.28 101.632l382.976 200.32a57.664 57.664 0 0 0 55.296-1.024l355.648-202.368a57.728 57.728 0 0 0-0.768-100.8l-369.28-203.328a57.792 57.792 0 0 0-27.84-7.168zM531.072 768a28.8 28.8 0 0 1-13.376-3.264L105.024 548.928a28.864 28.864 0 1 1 26.752-51.2l398.72 208.64 369.536-210.368a28.864 28.864 0 1 1 28.544 50.176L545.28 764.288a28.8 28.8 0 0 1-14.272 3.776z m0 186.88a28.8 28.8 0 0 1-13.376-3.328l-412.672-215.872a28.864 28.864 0 0 1 26.752-51.136l398.72 208.576 369.536-210.368a28.864 28.864 0 0 1 28.544 50.176l-383.232 218.112a28.8 28.8 0 0 1-14.272 3.84z" /></svg>