<?xml version="1.0" standalone="no"?><!DOCTYPE svg PUBLIC "-//W3C//DTD SVG 1.1//EN" "http://www.w3.org/Graphics/SVG/1.1/DTD/svg11.dtd"><svg t="1653105930789" class="icon" viewBox="0 0 1024 1024" version="1.1" xmlns="http://www.w3.org/2000/svg" p-id="8120" xmlns:xlink="http://www.w3.org/1999/xlink" width="100" height="100"><defs><style type="text/css">@font-face { font-family: feedback-iconfont; src: url("//at.alicdn.com/t/font_1031158_u69w8yhxdu.woff2?t=1630033759944") format("woff2"), url("//at.alicdn.com/t/font_1031158_u69w8yhxdu.woff?t=1630033759944") format("woff"), url("//at.alicdn.com/t/font_1031158_u69w8yhxdu.ttf?t=1630033759944") format("truetype"); }
</style></defs><path d="M801.651936 1002.50443 615.051027 1002.50443c-14.620999 0-26.473955-11.852956-26.473955-26.473955L588.577073 617.225553c0-13.279445-10.765181-24.043602-24.043602-24.043602L462.194664 593.181951c-13.279445 0-24.043602 10.765181-24.043602 24.043602l0 358.804922c0 14.620999-11.852956 26.473955-26.473955 26.473955L219.354893 1002.50443c-43.057655 0-77.963653-34.904974-77.963653-77.963653L141.391241 594.759889c0-9.91379-8.037047-17.950837-17.950837-17.950837L74.350358 576.809051c-45.830815 0-69.160149-55.069223-37.275975-87.992053l437.793928-452.055746c20.236903-20.896936 53.695946-21.078061 74.159-0.402159l443.664635 448.288956c33.81106 34.163077 9.610892 92.161003-38.454824 92.161003l-52.685943 0c-10.650571 0-19.284205 8.633634-19.284205 19.285229l0 325.797158C882.265952 966.41242 846.173942 1002.50443 801.651936 1002.50443zM687.458127 935.989527l95.92677 0c17.875113 0 32.366152-14.491039 32.366152-32.366152L815.751049 543.343869c0-18.252713 14.797008-33.04972 33.04972-33.04972l62.015426 0c5.069459 0 7.621585-6.116301 4.055362-9.719362L527.942087 109.612467c-8.608052-8.698103-22.683628-8.621355-31.197536 0.168846L108.868523 510.294149l65.988924 0c18.252713 0 33.04972 14.797008 33.04972 33.04972L207.907167 903.623375c0 17.875113 14.491039 32.366152 32.366152 32.366152l98.996688 0c17.875113 0 32.366152-14.491039 32.366152-32.366152L371.636159 620.411105c0-51.773154 41.970904-93.744058 93.744058-93.744058l95.967702 0c51.773154 0 93.744058 41.970904 93.744058 93.744058L655.091976 903.623375C655.091976 921.498488 669.583015 935.989527 687.458127 935.989527z" p-id="8121"></path></svg>