<?xml version="1.0" standalone="no"?><!DOCTYPE svg PUBLIC "-//W3C//DTD SVG 1.1//EN" "http://www.w3.org/Graphics/SVG/1.1/DTD/svg11.dtd"><svg class="icon" width="100px" height="100.00px" viewBox="0 0 1024 1024" version="1.1" xmlns="http://www.w3.org/2000/svg"><path d="M426.688 256.512c23.424 0 42.624 14.528 42.624 32s-19.2 32-42.624 32H341.312c-23.424 0-42.624-14.528-42.624-32s19.2-32 42.624-32h85.376z m0 170.24c23.424 0 42.624 14.528 42.624 32s-19.2 32-42.624 32H341.312c-23.424 0-42.624-14.528-42.624-32s19.2-32 42.624-32h85.376z m435.2 89.152c-23.488 0-29.888-19.2-29.888-42.624V168.192a17.088 17.088 0 0 0-17.088-17.088H209.088A17.088 17.088 0 0 0 192 168.192v691.2c0 9.408 7.68 17.088 17.088 17.088h260.224c23.488 0 42.688 6.4 42.688 29.824 0 23.488-19.2 34.176-42.688 34.176h-256C166.4 940.48 128 902.08 128 855.04V172.48c0-46.976 38.4-85.376 85.312-85.376h597.376c46.912 0 85.312 38.4 85.312 85.376v300.8c0 23.424-10.688 42.624-34.112 42.624z m-40.96 424.576H672a43.52 43.52 0 0 1-37.568-21.376L560.64 792a42.368 42.368 0 0 1 0-42.688l74.688-128.832a43.52 43.52 0 0 1 37.504-21.376h149.376a43.52 43.52 0 0 1 37.504 21.376l73.856 128c7.68 13.184 7.68 29.44 0 42.624l-74.688 128a45.312 45.312 0 0 1-37.952 21.376z m-137.408-64h125.44l62.272-106.688-61.44-106.688h-125.44l-62.272 107.52 61.44 105.856z" /></svg>