<?xml version="1.0" standalone="no"?><!DOCTYPE svg PUBLIC "-//W3C//DTD SVG 1.1//EN" "http://www.w3.org/Graphics/SVG/1.1/DTD/svg11.dtd"><svg class="icon" width="100px" height="100.00px" viewBox="0 0 1024 1024" version="1.1" xmlns="http://www.w3.org/2000/svg"><path d="M900.224 817.088h-27.712V428.8A111.296 111.296 0 0 0 761.6 317.824H595.2V262.4a111.296 111.296 0 0 0-110.976-110.912H262.4A111.296 111.296 0 0 0 151.488 262.4v554.688h-27.776a27.456 27.456 0 0 0-27.712 27.712c0 15.488 12.16 27.776 27.712 27.776h776.512a27.52 27.52 0 0 0 27.776-27.776 27.52 27.52 0 0 0-27.776-27.712z m-360.512-499.2v499.2h-332.8V262.4c0-30.464 24.96-55.424 55.488-55.424h221.824c30.592 0 55.488 24.96 55.488 55.424v55.488z m277.376 499.2H595.2V373.376h166.4a55.68 55.68 0 0 1 55.488 55.424v388.288z m-360.512-499.2h-166.4A27.52 27.52 0 0 0 262.4 345.6c0 15.488 12.16 27.712 27.712 27.712h166.4c15.488 0 27.712-12.16 27.712-27.712a27.456 27.456 0 0 0-27.712-27.776z m0 166.4h-166.4A27.52 27.52 0 0 0 262.4 512c0 15.488 12.16 27.776 27.712 27.776h166.4A27.456 27.456 0 0 0 484.224 512a27.456 27.456 0 0 0-27.712-27.776z m0 166.4h-166.4a27.456 27.456 0 0 0-27.776 27.712c0 15.488 12.224 27.712 27.776 27.712h166.4a27.456 27.456 0 0 0 27.712-27.712 27.456 27.456 0 0 0-27.776-27.712z m277.312-166.4H678.4a27.52 27.52 0 0 0-27.776 27.712 27.52 27.52 0 0 0 27.776 27.712h55.488A27.456 27.456 0 0 0 761.536 512a27.456 27.456 0 0 0-27.648-27.776z m0 166.4H678.4a27.456 27.456 0 0 0-27.776 27.712 27.52 27.52 0 0 0 27.776 27.712h55.488a27.456 27.456 0 0 0 27.648-27.712 27.392 27.392 0 0 0-27.648-27.712z" /></svg>