<?xml version="1.0" standalone="no"?><!DOCTYPE svg PUBLIC "-//W3C//DTD SVG 1.1//EN" "http://www.w3.org/Graphics/SVG/1.1/DTD/svg11.dtd"><svg class="icon" width="100px" height="100.00px" viewBox="0 0 1024 1024" version="1.1" xmlns="http://www.w3.org/2000/svg"><path d="M960 456v336c0 46.4-37.632 83.968-84.032 83.968H400c-35.584 0-67.392-22.4-79.232-56h-71.68L162.496 920.96A56 56 0 0 1 64 884.416V203.968c0-46.336 37.632-83.968 84.032-83.968h672c46.336 0 83.968 37.632 83.968 83.968v172.8c32.64 11.52 56 42.688 56 79.232zM512 539.968h251.968a27.968 27.968 0 1 1 0 56H512a27.968 27.968 0 0 1 0-56z m0 112h168a28.032 28.032 0 1 1 0 56H512a28.032 28.032 0 0 1 0-56z m-112-224a27.968 27.968 0 0 0-27.968 28.032v336c0 15.488 12.48 27.968 27.968 27.968h475.968a27.968 27.968 0 0 0 28.032-27.968v-336a27.968 27.968 0 0 0-28.032-28.032H400z m448-56V203.968a27.968 27.968 0 0 0-28.032-27.968h-672a27.968 27.968 0 0 0-27.968 27.968V884.48l94.976-110.656a27.968 27.968 0 0 1 21.248-9.792h79.808V456c0-46.4 37.568-84.032 83.968-84.032h448z" /></svg>