<?xml version="1.0" standalone="no"?><!DOCTYPE svg PUBLIC "-//W3C//DTD SVG 1.1//EN" "http://www.w3.org/Graphics/SVG/1.1/DTD/svg11.dtd"><svg class="icon" width="100px" height="100.00px" viewBox="0 0 1024 1024" version="1.1" xmlns="http://www.w3.org/2000/svg"><path d="M644.032 498.112a31.04 31.04 0 0 0 0-62.016h-58.88l66.24-149.312a30.656 30.656 0 0 0-55.808-24.96l-78.72 174.272H514.56L435.84 261.824a30.528 30.528 0 0 0-55.808 24.96L446.08 436.096H384a31.04 31.04 0 0 0 0 62.016h100.672v65.6H384a31.04 31.04 0 0 0 0 62.016h100.672v98.368a31.04 31.04 0 0 0 62.08 0V625.728h97.28a31.04 31.04 0 0 0 0-62.08H546.56V498.176h97.344z m318.08 270.464a32 32 0 0 0-40.832-19.584l-26.24 9.216V144.576c0-42.496-34.56-76.992-76.928-76.992h-615.04c-42.496 0-76.992 34.56-76.992 76.992v609.6l-21.504-7.808a32 32 0 0 0-21.76 60.224l427.584 155.008 432.128-152.192a32.064 32.064 0 0 0 19.584-40.832z m-772.032 8.832V144.576c0-7.168 5.76-12.992 12.992-12.992h614.912c7.232 0 12.992 5.76 12.992 12.992v636.16L510.72 893.568l-320.64-116.224z" /></svg>