<?xml version="1.0" standalone="no"?><!DOCTYPE svg PUBLIC "-//W3C//DTD SVG 1.1//EN" "http://www.w3.org/Graphics/SVG/1.1/DTD/svg11.dtd"><svg class="icon" width="100px" height="100.00px" viewBox="0 0 1024 1024" version="1.1" xmlns="http://www.w3.org/2000/svg"><path d="M416 192c23.68 0 44.416 12.928 55.424 32H716.8a32 32 0 1 1 0 64l-245.376 0.128a63.936 63.936 0 0 1-110.848 0L332.8 288a32 32 0 1 1 0-64h27.776A63.872 63.872 0 0 1 416 192z m192 192c23.68 0 44.416 12.928 55.424 32H704a32 32 0 1 1 0 64l-40.576 0.128a63.936 63.936 0 0 1-110.848 0L320 480a32 32 0 1 1 0-64h232.576A63.872 63.872 0 0 1 608 384z m192-256h-576v448h135.488c14.592 0 28.16 7.296 36.224 19.072l3.072 5.44a128.064 128.064 0 0 0 229.44 0.64 45.376 45.376 0 0 1 40.576-25.024h131.2V128z m-452.48 512H128v256h768v-256h-216.32l-0.96 1.92c-16.64 27.904-40 51.2-68.032 67.584l-12.288 6.592a192 192 0 0 1-245.568-67.2L347.52 640zM832 64a32 32 0 0 1 32 32V576h64a32 32 0 0 1 32 32v320a32 32 0 0 1-32 32h-832a32 32 0 0 1-32-32v-320a32 32 0 0 1 32-32h64V96A32 32 0 0 1 192 64h640z" /></svg>