<?xml version="1.0" standalone="no"?><!DOCTYPE svg PUBLIC "-//W3C//DTD SVG 1.1//EN" "http://www.w3.org/Graphics/SVG/1.1/DTD/svg11.dtd"><svg class="icon" width="100px" height="100.00px" viewBox="0 0 1024 1024" version="1.1" xmlns="http://www.w3.org/2000/svg"><path d="M873.92 492.416a362.88 362.88 0 0 1-212.992 307.712 149.312 149.312 0 1 1-15.936-78.72 285.12 285.12 0 0 0 148.8-209.472c27.84-0.64 55.168-7.296 80.128-19.52zM512 704a85.312 85.312 0 1 0 77.44 121.28l0.768-1.728 1.664-4.096c1.408-3.712 2.56-7.424 3.392-11.264l-0.32 1.408c0.32-1.408 0.64-2.752 0.832-4.16l-0.512 2.752 0.96-4.992-0.448 2.24c0.32-1.472 0.576-3.072 0.768-4.608l-0.32 2.368a142.08 142.08 0 0 0 0.64-4.48l-0.32 2.112a85.12 85.12 0 0 0 0.768-11.52l-0.128-5.12a86.08 86.08 0 0 0-0.448-5.12l0.384 3.776a85.632 85.632 0 0 0-0.512-4.8l0.128 1.024a84.992 84.992 0 0 0-2.304-11.776l0.384 1.28a84.672 84.672 0 0 0-1.344-4.672l0.96 3.392a84.672 84.672 0 0 0-1.344-4.608l0.384 1.152a84.672 84.672 0 0 0-1.6-4.608l1.216 3.456a84.672 84.672 0 0 0-1.728-4.8l0.512 1.344a84.864 84.864 0 0 0-5.12-11.008l0.768 1.28a85.184 85.184 0 0 0-2.24-3.904l1.472 2.56A85.312 85.312 0 0 0 512 704zM234.688 170.688a149.312 149.312 0 1 1-7.68 298.432v0.192c0 94.016 45.568 177.408 115.776 229.312-12.992 24.32-20.672 51.136-22.4 78.656a362.432 362.432 0 0 1-170.112-334.08 149.312 149.312 0 0 1 84.416-272.512z m277.312-64a360.96 360.96 0 0 1 220.928 75.008 149.312 149.312 0 1 1-63.936 49.856A283.2 283.2 0 0 0 512 184.384c-42.688 0-83.2 9.408-119.552 26.24a192.448 192.448 0 0 0-60.48-56.192A360.896 360.896 0 0 1 512 106.688zM234.368 407.872l3.456 0.256-2.048-0.256h-1.408z m-3.072 0l2.56 0.256h3.84l-6.4-0.32z m-1.024-0.064l4.8 0.256h1.6l-6.4-0.256z m-1.92-0.256l2.88 0.256h-1.088l-1.728-0.256z m-1.344 0h1.6-1.6z m-26.88-8l4.032 1.792-3.584-1.664-0.384-0.128z m-2.56-1.984l5.504 4.096 0.896 0.64-0.896-0.64-0.896-0.704-4.608-3.392z m-14.592-9.664l4.8 4.8 1.6 1.6-4.224-4.16-2.176-2.24z m1.28 1.536l1.92 1.536-0.32-0.128-1.6-1.408z m540.416-119.296l-4.224 6.016 3.2-4.48 1.024-1.536z m24-21.568l-6.4 5.12 3.2-2.624 3.2-2.496z m26.688-9.6l-3.84 0.832 2.176-0.384 1.664-0.448z m1.6-0.32l-2.304 0.448 2.432-0.448h-0.128z m5.44-2.304l-3.456 1.792-2.944 1.728 3.2-1.92 3.2-1.6zM233.472 407.936h-0.256l-3.84-0.256 4.096 0.256z m-6.528-0.448l-0.832-0.192 4.416 0.448-3.584-0.256z m-21.888-5.184l-0.832-0.704-3.136-2.752 6.4 5.504-2.432-2.048z m-14.912-8.448l2.048 1.344 3.52 2.048-5.568-3.392z m1.984 1.408L192 395.072l-6.272-4.352 6.4 4.48z m42.112 12.608h-3.712 3.712z m519.296-161.472l2.176-0.96 1.088-0.384-3.264 1.28z m16-6.016l1.408-0.448 1.088-0.256-2.496 0.64z m6.592-1.472l0.512-0.128-0.832 0.128h0.32z m-8-1.6l-0.192 0.064 1.664-0.448a84.672 84.672 0 0 0-4.544 1.28l1.856-0.576-2.24 0.64-1.664 0.512-2.048 0.704a84.736 84.736 0 0 0-8.256 3.392l0.64-0.32-0.832 0.384-0.384 0.192-0.128 0.064-0.32 0.192-0.768 0.384-1.536 0.832h-0.064l-1.92 1.088 1.792-1.024-1.856 1.024-1.088 0.64-0.832 0.512 0.128-0.128-0.192 0.128-1.92 1.216-0.576 0.32-0.896 0.64-0.576 0.384-1.728 1.216-1.28 0.96-0.384 0.256a87.68 87.68 0 0 0-7.744 6.592l-0.64 0.64-0.896 0.896-1.088 1.088-0.384 0.384-0.384 0.448-1.024 1.088-0.768 0.832-0.128 0.192-0.448 0.512-1.344 1.664-0.768 0.896-0.576 0.768v0.064l-1.408 1.792-0.384 0.512-2.432 3.584a85.312 85.312 0 1 0 71.744-39.104H788.48l-3.904 0.128h-1.152a85.696 85.696 0 0 0-5.312 0.576l-2.112 0.32-1.6 0.256 1.28-0.192-1.28 0.192-0.512 0.064-0.256 0.064h-0.128l-0.128 0.064-1.6 0.32 0.896-0.192-0.96 0.192-0.96 0.192-1.216 0.32 0.896-0.256-1.088 0.256-0.448 0.128-0.448 0.128h-0.192l-0.192 0.064zM229.952 405.184l3.392 0.128h1.28a85.312 85.312 0 1 0-70.272-36.928l2.944 4.032 2.624 3.2h0.064l1.472 1.728-1.152-1.344 1.92 2.112a62.08 62.08 0 0 0 2.304 2.432l0.192 0.192 0.512 0.512 0.576 0.512 1.28 1.28 0.512 0.384 0.576 0.512-0.576-0.512 1.28 1.152-0.192-0.192 0.256 0.192 0.384 0.384 0.96 0.832 0.512 0.384 1.536 1.216-0.64-0.448 0.64 0.448 0.256 0.192 0.384 0.32-0.32-0.256 1.28 0.96 2.816 1.984 0.128 0.064 0.704 0.512 1.6 1.024 0.64 0.384-1.6-1.024 2.752 1.728 1.664 1.024 1.408 0.768 0.768 0.384 1.024 0.576 1.728 0.832 1.152 0.512 0.192 0.128 0.32 0.128 1.92 0.832 0.704 0.32 0.256 0.128 0.256 0.064 0.768 0.32 2.048 0.832-1.152-0.448c3.136 1.216 6.336 2.24 9.6 3.072l5.056 1.088 4.48 0.704-0.64-0.064 2.112 0.256 0.512 0.064h0.256l0.384 0.064 1.088 0.128-1.024-0.128 1.28 0.128h0.448l1.408 0.128h0.064l0.64 0.064h0.576-0.32z" /></svg>