<?xml version="1.0" standalone="no"?><!DOCTYPE svg PUBLIC "-//W3C//DTD SVG 1.1//EN" "http://www.w3.org/Graphics/SVG/1.1/DTD/svg11.dtd"><svg class="icon" width="100px" height="100.00px" viewBox="0 0 1024 1024" version="1.1" xmlns="http://www.w3.org/2000/svg"><path d="M952 473.984h-122.24a320.128 320.128 0 0 0-279.744-279.808V72A8 8 0 0 0 542.016 64H481.92a8 8 0 0 0-8 8v122.24a320.128 320.128 0 0 0-279.808 279.744H72A8 8 0 0 0 64 481.984v60.032c0 4.416 3.584 8 8 8h122.24a320.128 320.128 0 0 0 279.744 279.808v122.176c0 4.416 3.648 8 8 8h60.032a8 8 0 0 0 8-8v-122.24a320.128 320.128 0 0 0 279.808-279.744h122.176A8 8 0 0 0 960 542.016V481.92a8 8 0 0 0-8-8zM512 756.032a243.968 243.968 0 1 1 0-488.064 243.968 243.968 0 1 1 0 488z m0-364.032c-32.128 0-62.08 12.416-84.8 35.2-22.72 22.72-35.2 52.672-35.2 84.8s12.48 62.08 35.2 84.8a119.552 119.552 0 0 0 169.6 0 119.552 119.552 0 0 0 0-169.6A118.592 118.592 0 0 0 512 392z" /></svg>