<?xml version="1.0" standalone="no"?><!DOCTYPE svg PUBLIC "-//W3C//DTD SVG 1.1//EN" "http://www.w3.org/Graphics/SVG/1.1/DTD/svg11.dtd"><svg class="icon" width="100px" height="100.00px" viewBox="0 0 1024 1024" version="1.1" xmlns="http://www.w3.org/2000/svg"><path d="M317.632 918.016a54.144 54.144 0 0 1-54.272-54.272v-91.008H197.056A133.12 133.12 0 0 1 64 639.744V238.976a133.12 133.12 0 0 1 132.992-132.992h37.44a27.968 27.968 0 1 1 0 56h-37.44c-42.432 0-76.992 34.56-76.992 76.992v400.768c0 42.432 34.56 76.992 76.992 76.992h68.096c29.888 0 54.208 24.32 54.208 54.272v89.408L532.544 716.8h294.4c42.496 0 77.056-34.56 77.056-76.992V238.976c0-42.432-34.56-76.992-76.992-76.992H403.072a27.968 27.968 0 1 1 0-56h423.936A133.12 133.12 0 0 1 960 238.976v400.768a133.12 133.12 0 0 1-132.992 132.992H549.696L347.968 908.8a54.528 54.528 0 0 1-30.336 9.28zM612.48 456.192H411.52a28.288 28.288 0 0 1-28.16-28.16c0-15.488 12.672-28.16 28.16-28.16h200.96c15.488 0 28.16 12.672 28.16 28.16 0 15.424-12.672 28.16-28.16 28.16z m0 112.064H411.52a28.288 28.288 0 0 1-28.16-28.16c0-15.488 12.672-28.16 28.16-28.16h200.96c15.488 0 28.16 12.672 28.16 28.16s-12.672 28.16-28.16 28.16zM540.16 367.616v253.44c0 15.488-12.672 28.16-28.16 28.16a28.288 28.288 0 0 1-28.16-28.16v-253.44c0-15.488 12.672-28.16 28.16-28.16s28.16 12.672 28.16 28.16zM625.28 286.592L531.392 380.416a28.352 28.352 0 0 1-39.936 0 28.352 28.352 0 0 1 0-39.936l93.824-93.76c10.88-10.944 28.8-10.944 39.872 0 10.944 11.008 10.944 28.928 0 39.872zM398.72 286.592l93.824 93.824c10.944 10.88 28.928 10.88 39.936 0a28.352 28.352 0 0 0 0-39.936L438.592 246.784a28.352 28.352 0 0 0-39.936 0c-10.816 10.944-10.816 28.864 0.128 39.808z" /></svg>