<?xml version="1.0" standalone="no"?><!DOCTYPE svg PUBLIC "-//W3C//DTD SVG 1.1//EN" "http://www.w3.org/Graphics/SVG/1.1/DTD/svg11.dtd"><svg class="icon" width="100px" height="100.00px" viewBox="0 0 1024 1024" version="1.1" xmlns="http://www.w3.org/2000/svg"><path d="M167.744 1024C75.2 1024 0 944 0 845.696V178.304A178.944 178.944 0 0 1 179.2 0h592.192a178.56 178.56 0 0 1 178.496 178.304v37.76l2.688 1.984A182.4 182.4 0 0 1 1024 363.584v482.112C1024 944 948.736 1024 856.256 1024H167.744zM179.2 60.672A118.272 118.272 0 0 0 60.672 178.304v667.392c0 64.832 48 117.632 107.008 117.632H856.32c59.072 0 107.072-52.736 107.072-117.632V363.52c0-64.896-48-117.696-107.072-117.696H252.608a30.336 30.336 0 0 1 0-60.672h603.648c8.384 0 16.448 1.344 24.96 2.752l7.808 1.28 0.192-7.872v-3.072A117.888 117.888 0 0 0 771.392 60.672H179.2z m284.032 768.256a30.08 30.08 0 0 1-30.848-29.248v-42.24H274.688a30.08 30.08 0 0 1-30.848-29.248c0-16.128 13.824-29.312 30.848-29.312h157.696V614.4H274.688a30.08 30.08 0 0 1-30.848-29.248 30.08 30.08 0 0 1 30.848-29.248h157.696v-37.376l-4.544-1.536a107.648 107.648 0 0 1-30.848-16.128L255.424 393.408a28.352 28.352 0 0 1-4.864-41.152 31.488 31.488 0 0 1 24.192-10.88c6.976-0.064 13.696 2.112 19.2 6.272l141.632 107.456a45.76 45.76 0 0 0 55.296 0l141.632-107.328a32.448 32.448 0 0 1 43.392 4.48 28.352 28.352 0 0 1-4.864 41.216L529.536 500.864a107.968 107.968 0 0 1-30.912 16.128l-4.48 1.536v37.376h157.632a30.08 30.08 0 0 1 30.912 29.248 30.144 30.144 0 0 1-30.912 29.248H494.08v84.48h157.696c17.024 0 30.912 13.184 30.912 29.312a30.08 30.08 0 0 1-30.912 29.248H494.08v42.24a30.08 30.08 0 0 1-30.848 29.248z" /></svg>