<?xml version="1.0" standalone="no"?><!DOCTYPE svg PUBLIC "-//W3C//DTD SVG 1.1//EN" "http://www.w3.org/Graphics/SVG/1.1/DTD/svg11.dtd"><svg class="icon" width="100px" height="100.00px" viewBox="0 0 1024 1024" version="1.1" xmlns="http://www.w3.org/2000/svg"><path d="M511.424 572.48A183.552 183.552 0 0 1 328.128 389.12a183.424 183.424 0 0 1 183.296-183.232 183.552 183.552 0 0 1 183.296 183.296 183.424 183.424 0 0 1-183.296 183.232z m0-309.44a126.336 126.336 0 0 0-126.272 126.08 126.336 126.336 0 0 0 252.544 0.128 126.464 126.464 0 0 0-126.208-126.272z m224.256 498.112a28.544 28.544 0 0 1-29.184-23.872 197.12 197.12 0 0 0-388.928-0.768 28.544 28.544 0 0 1-56.256-9.28 254.272 254.272 0 0 1 501.504 0.96 28.544 28.544 0 0 1-27.136 32.96zM662.208 159.36h185.472c9.344 0 16.896 7.552 16.896 16.896v161.216a28.544 28.544 0 0 0 57.024 0V176.32c0-40.768-33.152-73.92-73.92-73.92h-185.472a28.544 28.544 0 1 0 0 57.024zM159.424 337.536V176.32c0-9.344 7.552-16.896 16.896-16.896h211.584v-28.48a28.544 28.544 0 0 0-28.544-28.544h-183.04c-40.768 0-73.92 33.152-73.92 73.92v161.216a28.544 28.544 0 0 0 57.024 0z m199.936 505.984h-183.04a16.896 16.896 0 0 1-16.896-16.896v-186.24a28.544 28.544 0 0 0-57.024 0v186.24c0 40.832 33.152 73.92 73.92 73.92h183.104a28.544 28.544 0 1 0 0-57.024z m505.216-203.136v186.24a16.896 16.896 0 0 1-16.896 16.896h-185.472a28.544 28.544 0 1 0 0 57.024h185.472c40.768 0 73.92-33.088 73.92-73.92v-186.24a28.544 28.544 0 1 0-57.024 0z" /></svg>