<?xml version="1.0" standalone="no"?><!DOCTYPE svg PUBLIC "-//W3C//DTD SVG 1.1//EN" "http://www.w3.org/Graphics/SVG/1.1/DTD/svg11.dtd"><svg class="icon" width="100px" height="100.00px" viewBox="0 0 1024 1024" version="1.1" xmlns="http://www.w3.org/2000/svg"><path d="M832 504v384h-64v-384h64m0-64h-64a64 64 0 0 0-64 64v384a64 64 0 0 0 64 64h64a64 64 0 0 0 64-64v-384a64 64 0 0 0-64-64z m-288 160v288h-64v-288h64m0-64h-64a64 64 0 0 0-64 64v288a64 64 0 0 0 64 64h64a64 64 0 0 0 64-64v-288a64 64 0 0 0-64-64z m-288 192v160H192v-160h64m0-64H192a64 64 0 0 0-64 64v160a64 64 0 0 0 64 64h64a64 64 0 0 0 64-64v-160a64 64 0 0 0-64-64z m614.848-362.56a32 32 0 0 1-32-32V136h-133.376a32 32 0 0 1 0-64h165.44a32 32 0 0 1 32 32V269.44a32 32 0 0 1-32 32zM154.688 445.632a32 32 0 0 1-22.016-55.04l103.68-99.392a176 176 0 0 1 238.848-8.128c43.072 36.416 106.368 35.84 148.8-1.28l178.368-150.4a32 32 0 0 1 41.28 48.96L665.6 330.24a178.368 178.368 0 0 1-231.872 1.6 113.088 113.088 0 0 0-152.96 5.312L177.024 436.8a32 32 0 0 1-22.272 8.832z" /></svg>