<?xml version="1.0" standalone="no"?><!DOCTYPE svg PUBLIC "-//W3C//DTD SVG 1.1//EN" "http://www.w3.org/Graphics/SVG/1.1/DTD/svg11.dtd"><svg class="icon" width="100px" height="100.00px" viewBox="0 0 1024 1024" version="1.1" xmlns="http://www.w3.org/2000/svg"><path d="M832 192h-64c0-35.2-28.8-64-64-64h-64V64c0-35.2-28.8-64-64-64H448c-35.2 0-64 28.8-64 64v64H320c-35.2 0-64 28.8-64 64H192c-35.2 0-64 28.8-64 64v704c0 35.2 28.8 64 64 64h640c35.2 0 64-28.8 64-64V256c0-35.2-28.8-64-64-64zM320 192h128V64h128v128h128v128H320V192z m512 768H192V256h64v64c0 35.2 28.8 64 64 64h384c35.2 0 64-28.8 64-64V256h64v704zM320 512h384v64H320V512z m0 128h384v64H320v-64z m0 128h384v64H320v-64z" /></svg>