<?xml version="1.0" standalone="no"?><!DOCTYPE svg PUBLIC "-//W3C//DTD SVG 1.1//EN" "http://www.w3.org/Graphics/SVG/1.1/DTD/svg11.dtd"><svg class="icon" width="100px" height="100.00px" viewBox="0 0 1024 1024" version="1.1" xmlns="http://www.w3.org/2000/svg"><path d="M768 64v128h192v768H256v-128H64V64h704z m128 192H320v640h576V256zM608 320c76.16 0 137.856 61.12 137.856 136.512a136.32 136.32 0 0 1-69.312 118.528l27.968 69.248H832V832H384v-187.712h127.424l28.032-69.248a136.32 136.32 0 0 1-69.312-118.528C470.144 381.12 531.84 320 608 320zM704 128H128v640h128V192h448V128zM608 576.128l-53.44 132.16L448 708.224V768h320v-59.776h-106.688L608 576.192v-0.064zM608 384c-40.96 0-73.856 32.64-73.856 72.512 0 23.296 11.2 44.608 29.696 58.176l7.232 4.672 36.864 20.992 36.992-20.992c20.224-11.52 33.664-31.552 36.416-54.208l0.512-8.64C681.856 416.64 648.896 384 608 384z" /></svg>