<?xml version="1.0" standalone="no"?><!DOCTYPE svg PUBLIC "-//W3C//DTD SVG 1.1//EN" "http://www.w3.org/Graphics/SVG/1.1/DTD/svg11.dtd"><svg class="icon" width="100px" height="100.00px" viewBox="0 0 1024 1024" version="1.1" xmlns="http://www.w3.org/2000/svg"><path d="M527.552 892.16c-150.208 0-309.888-52.032-309.888-148.544 0-66.304 78.4-119.552 202.624-139.904-54.144-45.824-88.064-121.344-88.064-199.36 0-195.072 106.24-236.032 195.328-236.032 89.088 0 195.264 40.96 195.264 236.032 0 78.016-33.92 153.536-88 199.36 124.16 20.352 202.624 73.6 202.624 139.904 0 96.512-159.68 148.608-309.888 148.608z m0-661.76c-57.216 0-133.312 18.048-133.312 173.952 0 65.856 32.192 131.072 80 162.368 8.832 5.76 14.08 15.488 14.08 25.984v37.248a31.04 31.04 0 0 1-27.584 30.848c-123.52 13.504-180.992 57.408-180.992 82.816 0 35.264 96.512 86.528 247.808 86.528 151.232 0 247.808-51.2 247.808-86.528 0-25.408-57.536-69.312-180.992-82.816a31.04 31.04 0 0 1-27.648-30.848v-37.248c0-10.496 5.312-20.224 14.08-25.984 47.808-31.296 80-96.512 80-162.368 0-155.904-76.032-173.952-133.248-173.952z m429.44 474.304a31.04 31.04 0 0 1-31.04-31.04c0-25.408-57.472-69.312-180.992-82.816a31.04 31.04 0 0 1-27.648-30.848v-37.248c0-10.496 5.312-20.224 14.08-25.984 47.872-31.232 80-96.512 80-162.432 0-155.904-76.032-173.888-133.248-173.888a31.04 31.04 0 0 1 0-62.08c89.088 0 195.328 40.96 195.328 235.968 0 78.08-33.92 153.6-88.064 199.424 124.224 20.352 202.624 73.6 202.624 139.904a31.04 31.04 0 0 1-31.04 31.04z m-858.88 0a31.04 31.04 0 0 1-31.04-31.04c0-66.24 78.4-119.552 202.56-139.904-54.08-45.824-88-121.344-88-199.424 0-195.008 106.24-235.968 195.264-235.968a31.04 31.04 0 0 1 0 62.08c-57.152 0-133.184 17.984-133.184 173.888 0 65.92 32.128 131.2 80 162.432 8.768 5.76 14.08 15.552 14.08 25.984v37.248a31.04 31.04 0 0 1-27.712 30.848c-123.52 13.504-180.992 57.408-180.992 82.816a31.04 31.04 0 0 1-31.04 31.04z" /></svg>