<?xml version="1.0" standalone="no"?><!DOCTYPE svg PUBLIC "-//W3C//DTD SVG 1.1//EN" "http://www.w3.org/Graphics/SVG/1.1/DTD/svg11.dtd"><svg class="icon" width="100px" height="100.00px" viewBox="0 0 1024 1024" version="1.1" xmlns="http://www.w3.org/2000/svg"><path d="M862.976 64.128H161.024a64.192 64.192 0 0 0-64 64v767.744c0.064 35.264 28.672 63.872 64 64h701.952a64.192 64.192 0 0 0 64-64V128.192a64.192 64.192 0 0 0-64-64z m0 831.616l-0.064 0.128H161.088l-0.064-0.128V128.256l0.128-0.128h701.76l0.064 0.128v767.488zM319.04 288.256h383.296a32 32 0 1 0 0-64H319.04a32 32 0 0 0 0 64z m0 127.808h383.296a32 32 0 1 0 0-64H319.04a32 32 0 0 0 0 64z m128 65.28h-128a32 32 0 1 0 0 64h128a32 32 0 0 0 0-64z m337.152 143.488l-79.616-11.52-35.648-72.192a24.96 24.96 0 0 0-44.8 0l-35.648 72.128-79.616 11.584a24.96 24.96 0 0 0-13.888 42.624l57.6 56.192-13.568 79.296a24.96 24.96 0 0 0 36.288 26.368l71.232-37.44 71.232 37.44a24.96 24.96 0 0 0 36.224-26.368l-13.568-79.36 57.6-56.128a24.96 24.96 0 0 0-13.888-42.624z m-88.064 72.192a24.96 24.96 0 0 0-7.232 22.08l7.296 42.368-38.016-20.032a24.96 24.96 0 0 0-23.296 0l-37.952 20.032 7.232-42.368a24.96 24.96 0 0 0-7.232-22.08l-30.72-30.08 42.496-6.144a24.96 24.96 0 0 0 18.816-13.632l19.008-38.528 19.008 38.528a24.96 24.96 0 0 0 18.816 13.632l42.496 6.208-30.72 30.016z" /></svg>