<?xml version="1.0" standalone="no"?><!DOCTYPE svg PUBLIC "-//W3C//DTD SVG 1.1//EN" "http://www.w3.org/Graphics/SVG/1.1/DTD/svg11.dtd"><svg class="icon" width="100px" height="100.00px" viewBox="0 0 1024 1024" version="1.1" xmlns="http://www.w3.org/2000/svg"><path d="M793.344 961.92c-73.664 0-134.016-57.92-134.016-128.64 0-59.52 43.008-109.44 100.48-123.904v-615.04c0-19.328 13.44-32.192 33.536-32.192 20.096 0 33.472 12.864 33.472 32.128v615.104c57.6 14.464 100.48 64.448 100.48 123.968 0 70.656-60.224 128.512-133.952 128.512z m0-192.896c-40.192 0-66.944 25.728-66.944 64.32 0 38.528 26.752 64.256 66.944 64.256 40.192 0 67.008-25.728 67.008-64.256 0-38.592-26.816-64.32-67.008-64.32zM558.848 603.776v325.952c0 19.264-13.376 32.128-33.472 32.128-20.096 0-33.472-12.8-33.472-32.128V603.776c-57.6-14.4-100.48-64.384-100.48-123.904 0-59.84 43.328-110.08 101.248-124.16-0.192-1.536-0.768-2.752-0.768-4.352V94.272c0-19.2 13.44-32.128 33.472-32.128 20.096 0 33.472 12.864 33.472 32.128V351.36c0 1.6-0.64 2.816-0.768 4.352 57.92 14.144 101.248 64.32 101.248 124.16 0 59.52-42.88 109.44-100.48 123.904z m-33.472-188.16c-40.192 0-67.008 25.728-67.008 64.256 0 38.592 26.816 64.256 67.008 64.256 40.192 0 66.944-25.664 66.944-64.256 0-38.528-26.752-64.256-66.944-64.256zM264.128 314.624v615.104c0 19.264-13.44 32.128-33.536 32.128-20.096 0-33.472-12.8-33.472-32.128V314.624C139.52 300.16 96.64 250.176 96.64 190.72c0-70.72 60.288-128.64 133.952-128.64s134.016 57.92 134.016 128.64c0 59.52-43.008 109.44-100.48 123.904z m-33.536-188.16c-40.192 0-67.008 25.6-67.008 64.256 0 38.528 26.816 64.256 67.008 64.256 40.192 0 67.008-25.728 67.008-64.256 0-38.592-26.816-64.32-67.008-64.32z" /></svg>