<?xml version="1.0" standalone="no"?><!DOCTYPE svg PUBLIC "-//W3C//DTD SVG 1.1//EN" "http://www.w3.org/Graphics/SVG/1.1/DTD/svg11.dtd"><svg class="icon" width="100px" height="100.00px" viewBox="0 0 1024 1024" version="1.1" xmlns="http://www.w3.org/2000/svg"><path d="M504.128 608.64A232.384 232.384 0 0 0 611.2 412.672a232.576 232.576 0 0 0-232.64-232.64A232.832 232.832 0 1 0 252.992 608.64c-121.472 47.616-207.36 162.88-207.36 301.824h68.352c8.32-139.008 123.712-243.008 264.832-243.008 141.056 0 256.512 104 264.832 243.008h68.032c-0.128-138.88-85.824-254.208-207.552-301.824z m-293.76-195.84a166.272 166.272 0 1 1 332.48-0.064 166.272 166.272 0 0 1-332.48 0z m344.064-232.704h23.936l0.256-66.432h332.608c37.056 0 67.072 30.016 67.072 67.008V843.52c0 37.056-30.08 67.072-67.072 67.072h-133.12v-66.688h95.04c21.376 0 38.656-17.344 38.656-38.72V218.816a38.72 38.72 0 0 0-38.656-38.72H578.496m66.368 66.56h199.488v66.432h-199.488V246.592z m0 132.928h199.488V446.08h-199.488V379.52z m0 132.992h199.488v66.496h-199.488v-66.56z m66.496 132.992h132.992v66.432h-132.992v-66.432z" /></svg>