<?xml version="1.0" standalone="no"?><!DOCTYPE svg PUBLIC "-//W3C//DTD SVG 1.1//EN" "http://www.w3.org/Graphics/SVG/1.1/DTD/svg11.dtd"><svg class="icon" width="100px" height="100.00px" viewBox="0 0 1024 1024" version="1.1" xmlns="http://www.w3.org/2000/svg"><path d="M490.688 426.688c-106.688 0-192-85.376-192-192 0-106.688 85.312-192 192-192 106.624 0 192 85.312 192 192 0 106.624-85.376 192-192 192z m0-320c-70.4 0-128 57.6-128 128s57.6 128 128 128 128-57.6 128-128-57.6-128-128-128z m134.4 435.2a33.28 33.28 0 0 1-27.776-17.088L537.6 422.4a31.04 31.04 0 0 1 10.688-42.688 34.112 34.112 0 0 1 44.8 10.688l59.712 102.4c8.512 14.912 2.112 34.112-10.688 42.688-6.4 4.224-12.8 6.4-17.024 6.4z m-347.776 138.624c-6.4 0-10.624-2.112-17.024-4.224-14.976-8.576-21.376-27.776-12.8-42.688l138.624-241.088a31.36 31.36 0 0 1 44.8-10.624c14.976 8.512 21.376 27.712 10.688 42.624L302.912 665.6a29.568 29.568 0 0 1-25.6 14.912z m422.4 300.8H160c-53.312 0-96-42.624-96-96v-170.624c0-53.376 42.688-96 96-96h311.488c17.024 0 32 14.912 32 32 0 17.024-14.976 32-32 32H160c-17.088 0-32 14.912-32 32v170.624c0 17.088 14.912 32 32 32h539.712c17.088 0 32 14.976 32 32 0 17.088-12.8 32-32 32z m110.976-192h-128a32.832 32.832 0 0 1-32-32v-128c0-17.024 14.912-32 32-32 17.024 0 32 14.976 32 32v96h96c17.024 0 32 14.976 32 32 0 17.088-12.8 32-32 32z m-108.8 192c-142.976 0-256-117.312-256-258.112 0-142.912 117.312-256 258.112-256 142.912 0 256 115.2 256 258.112 0 140.8-115.2 256-258.112 256z m0-450.112c-106.688 0-192 87.488-192 194.112 0 106.688 87.424 192 194.112 192 106.688 0 192-87.424 192-194.112 0-106.688-85.312-192-194.112-192z" /></svg>