<?xml version="1.0" standalone="no"?><!DOCTYPE svg PUBLIC "-//W3C//DTD SVG 1.1//EN" "http://www.w3.org/Graphics/SVG/1.1/DTD/svg11.dtd"><svg class="icon" width="100px" height="100.00px" viewBox="0 0 1024 1024" version="1.1" xmlns="http://www.w3.org/2000/svg"><path d="M901.504 78.656H254.08A36.672 36.672 0 0 0 217.6 115.2v157.248H122.496a36.672 36.672 0 0 0-36.544 36.608v563.2c0 40.192 32.896 73.088 73.152 73.088h742.4a36.672 36.672 0 0 0 36.544-36.544V115.2a36.672 36.672 0 0 0-36.544-36.544zM159.104 345.6H217.6v526.656h-58.496V345.6z m705.792 526.656H290.752V151.68h574.144V872.32zM541.248 735.104H614.4v-102.4h144.448V559.552H614.4v-43.904h144.448V442.496h-85.952l60.352-60.352-51.2-52.992L577.92 435.2 471.68 329.152l-51.2 52.992 62.208 60.352H396.8v73.152h144.448v43.904H396.8v73.152h144.448z" /></svg>