<?xml version="1.0" standalone="no"?><!DOCTYPE svg PUBLIC "-//W3C//DTD SVG 1.1//EN" "http://www.w3.org/Graphics/SVG/1.1/DTD/svg11.dtd"><svg class="icon" width="100px" height="100.00px" viewBox="0 0 1024 1024" version="1.1" xmlns="http://www.w3.org/2000/svg"><path d="M387.008 210.624a31.104 31.104 0 0 0 31.104-31.104v-10.368H604.8v10.368a31.104 31.104 0 1 0 62.208 0V96.64a31.104 31.104 0 1 0-62.208 0v10.368H418.112V96.64a31.104 31.104 0 1 0-62.208 0v82.944c0 17.152 13.952 31.104 31.104 31.104z m13.44 104.32a31.104 31.104 0 0 0-31.104 31.104v30.336a31.104 31.104 0 1 0 62.144 0v-30.336a31.104 31.104 0 0 0-31.04-31.104z m221.952 0a31.104 31.104 0 0 0-31.104 31.104v30.336a31.104 31.104 0 1 0 62.208 0v-30.336a31.104 31.104 0 0 0-31.104-31.104zM511.104 546.368c43.776 0 74.752-30.144 86.208-48a30.912 30.912 0 0 0-9.216-42.56 31.296 31.296 0 0 0-42.944 8.704c-0.128 0.192-13.568 19.648-34.048 19.648-19.904 0-32.32-18.048-33.152-19.264a31.104 31.104 0 0 0-52.608 33.088c11.136 17.984 41.792 48.384 85.76 48.384z m-47.488 352.32H266.24c-41.6 0-75.52-34.752-75.52-77.44V246.4c0-42.688 33.92-77.44 75.52-77.44a31.104 31.104 0 1 0 0-62.144c-75.968 0-137.728 62.592-137.728 139.52v574.976c0 76.928 61.76 139.52 137.728 139.52h197.44a31.104 31.104 0 1 0 0-62.144z m293.056-791.872a31.104 31.104 0 1 0 0 62.208c41.6 0 75.52 34.688 75.52 77.376v305.024a31.104 31.104 0 1 0 62.208 0V246.4c0-76.992-61.824-139.584-137.728-139.584z m84.288 544L613.376 885.12l-110.72-113.984a31.104 31.104 0 1 0-44.608 43.328l133.056 136.96 0.32 0.32 0.32 0.32c0.768 0.768 1.6 1.28 2.432 1.92 0.704 0.64 1.408 1.28 2.112 1.728 1.024 0.64 2.112 1.216 3.2 1.728 0.768 0.384 1.472 0.832 2.24 1.152 1.28 0.512 2.56 0.768 3.84 1.152l1.92 0.512a31.168 31.168 0 0 0 11.84 0l1.92-0.512c1.28-0.384 2.56-0.64 3.84-1.152 0.768-0.32 1.472-0.768 2.176-1.152 1.088-0.512 2.176-1.024 3.2-1.728 0.768-0.512 1.408-1.088 2.112-1.664l2.496-1.92 0.256-0.384 0.384-0.32 249.92-257.28a31.104 31.104 0 0 0-44.672-43.392z" /></svg>