<?xml version="1.0" standalone="no"?><!DOCTYPE svg PUBLIC "-//W3C//DTD SVG 1.1//EN" "http://www.w3.org/Graphics/SVG/1.1/DTD/svg11.dtd"><svg class="icon" width="100px" height="100.00px" viewBox="0 0 1024 1024" version="1.1" xmlns="http://www.w3.org/2000/svg"><path d="M32.064 848a32 32 0 1 0 64 0c0-131.008 98.816-237.824 225.792-252.928l27.072 54.4-28.8 231.04H384l-28.8-231.04 26.944-54.08c26.304 3.264 51.776 9.216 75.072 19.776 4.992-21.312 12.096-41.664 21.12-61.056A320 320 0 0 0 32.064 848z m320-768a192 192 0 1 0 0 384 192 192 0 0 0 0-384z m0 320.192a128.256 128.256 0 1 1 0-256.448 128.256 128.256 0 0 1 0 256.448z m499.392 438.912c2.56 3.904 6.976 9.152 13.376 15.552 35.392 38.784 60.032 68.544 73.984 89.344l53.12-40.832-94.848-97.088-45.632 33.024z m-222.08-343.552c-22.72 84.16-51.264 153.344-85.376 207.68 10.112 38.784 16.384 65.984 18.944 81.472 11.392-18.048 22.784-36.864 34.176-56.256v211.648h56.96V610.048c11.392-31.04 22.144-63.36 32.256-97.088l-56.96-17.408z m299.968 242.624V639.168h51.264v-58.24h-51.264V497.472h-60.736v83.456h-70.272V497.472h-60.736v83.456h-49.344v58.24h49.344v41.408c-0.64 2.368-1.472 4.736-1.472 7.36 0 2.624 0.896 4.992 1.472 7.36v42.816h-64.512v60.16h318.848v-60.16h-62.592v0.064z m-60.8 0h-70.272v-41.536c0.832-2.752 1.728-5.568 1.728-8.64 0-3.072-0.96-5.888-1.728-8.64v-40.192h70.272v99.008z m-193.6 164.992c17.728 15.552 32.896 29.12 45.568 40.832 32.512-33.024 62.976-68.096 91.136-104.896l-51.264-34.944a618.752 618.752 0 0 1-85.44 99.008z" /></svg>