<?xml version="1.0" standalone="no"?><!DOCTYPE svg PUBLIC "-//W3C//DTD SVG 1.1//EN" "http://www.w3.org/Graphics/SVG/1.1/DTD/svg11.dtd"><svg t="1655102739073" class="icon" viewBox="0 0 1024 1024" version="1.1" xmlns="http://www.w3.org/2000/svg" p-id="2169" xmlns:xlink="http://www.w3.org/1999/xlink" width="100" height="100"><defs><style type="text/css">@font-face { font-family: feedback-iconfont; src: url("//at.alicdn.com/t/font_1031158_u69w8yhxdu.woff2?t=1630033759944") format("woff2"), url("//at.alicdn.com/t/font_1031158_u69w8yhxdu.woff?t=1630033759944") format("woff"), url("//at.alicdn.com/t/font_1031158_u69w8yhxdu.ttf?t=1630033759944") format("truetype"); }
</style></defs><path d="M861.755 838.175l-11.156 11.153-48.1-48.083c74.232-74.119 120.157-176.569 120.157-289.745 0-113.174-45.923-215.622-120.153-289.742l48.096-48.079 11.266 11.262c80.051 85.425 129.073 200.267 129.073 326.559 0 126.35-49.067 241.239-129.183 326.675z m-107.524-85.182l-48.279-48.263c49.528-49.418 80.173-117.745 80.173-193.23 0-75.483-30.644-143.809-80.17-193.227l48.28-48.263c61.884 61.769 100.171 147.159 100.171 241.49 0 94.333-38.289 179.724-100.175 241.493zM273.062 716.25H0v-409.5h273.062v0.002L682.667 102v819L273.062 716.248v0.002zM204.8 375H68.281v273H204.8V375z m68.267 273L614.4 818.625v-614.25L273.067 375v273z" p-id="2170"></path></svg>