<?xml version="1.0" standalone="no"?><!DOCTYPE svg PUBLIC "-//W3C//DTD SVG 1.1//EN" "http://www.w3.org/Graphics/SVG/1.1/DTD/svg11.dtd"><svg t="1653900179330" class="icon" viewBox="0 0 1024 1024" version="1.1" xmlns="http://www.w3.org/2000/svg" p-id="2206" xmlns:xlink="http://www.w3.org/1999/xlink" width="100" height="100"><defs><style type="text/css">@font-face { font-family: feedback-iconfont; src: url("//at.alicdn.com/t/font_1031158_u69w8yhxdu.woff2?t=1630033759944") format("woff2"), url("//at.alicdn.com/t/font_1031158_u69w8yhxdu.woff?t=1630033759944") format("woff"), url("//at.alicdn.com/t/font_1031158_u69w8yhxdu.ttf?t=1630033759944") format("truetype"); }
</style></defs><path d="M877.714286 502.857143v438.857143h-73.142857v-438.857143h73.142857m0-73.142857h-73.142857a73.142857 73.142857 0 0 0-73.142858 73.142857v438.857143a73.142857 73.142857 0 0 0 73.142858 73.142857h73.142857a73.142857 73.142857 0 0 0 73.142857-73.142857v-438.857143a73.142857 73.142857 0 0 0-73.142857-73.142857zM548.571429 612.571429v329.142857h-73.142858v-329.142857h73.142858m0-73.142858h-73.142858a73.142857 73.142857 0 0 0-73.142857 73.142858v329.142857a73.142857 73.142857 0 0 0 73.142857 73.142857h73.142858a73.142857 73.142857 0 0 0 73.142857-73.142857v-329.142857a73.142857 73.142857 0 0 0-73.142857-73.142858zM219.428571 758.857143v182.857143H146.285714v-182.857143h73.142857m0-73.142857H146.285714a73.142857 73.142857 0 0 0-73.142857 73.142857v182.857143a73.142857 73.142857 0 0 0 73.142857 73.142857h73.142857a73.142857 73.142857 0 0 0 73.142858-73.142857v-182.857143a73.142857 73.142857 0 0 0-73.142858-73.142857zM922.148571 271.36a36.571429 36.571429 0 0 1-36.571428-36.571429V82.285714h-152.502857a36.571429 36.571429 0 0 1 0-73.142857h189.074285a36.571429 36.571429 0 0 1 36.571429 36.571429v189.074285a36.571429 36.571429 0 0 1-36.571429 36.571429z" p-id="2207"></path><path d="M103.68 436.114286a36.571429 36.571429 0 0 1-26.331429-11.154286 36.571429 36.571429 0 0 1 1.097143-51.748571l118.491429-113.554286a201.142857 201.142857 0 0 1 273.005714-9.325714 130.377143 130.377143 0 0 0 170.057143-1.462858l203.885714-171.885714a36.571429 36.571429 0 0 1 47.177143 55.954286L687.542857 304.274286a203.885714 203.885714 0 0 1-264.96 1.828571 129.28 129.28 0 0 0-174.811428 6.034286L129.097143 426.057143a36.571429 36.571429 0 0 1-25.417143 10.057143z" p-id="2208"></path></svg>