<?xml version="1.0" standalone="no"?><!DOCTYPE svg PUBLIC "-//W3C//DTD SVG 1.1//EN" "http://www.w3.org/Graphics/SVG/1.1/DTD/svg11.dtd"><svg t="1650607999199" class="icon" viewBox="0 0 1024 1024" version="1.1" xmlns="http://www.w3.org/2000/svg" p-id="2065" width="100" height="100" xmlns:xlink="http://www.w3.org/1999/xlink"><defs><style type="text/css">@font-face { font-family: feedback-iconfont; src: url("//at.alicdn.com/t/font_1031158_u69w8yhxdu.woff2?t=1630033759944") format("woff2"), url("//at.alicdn.com/t/font_1031158_u69w8yhxdu.woff?t=1630033759944") format("woff"), url("//at.alicdn.com/t/font_1031158_u69w8yhxdu.ttf?t=1630033759944") format("truetype"); }
</style></defs><path d="M512 936.746667c234.581333 0 424.746667-190.165333 424.746667-424.746667S746.581333 87.253333 512 87.253333 87.253333 277.418667 87.253333 512 277.418667 936.746667 512 936.746667z m0 64C242.090667 1000.746667 23.253333 781.909333 23.253333 512 23.253333 242.090667 242.090667 23.253333 512 23.253333 781.909333 23.253333 1000.746667 242.090667 1000.746667 512c0 269.909333-218.837333 488.746667-488.746667 488.746667z" p-id="2066"></path><path d="M422.826667 436.266667v0.682666a32 32 0 1 1-64-1.28 11.306667 11.306667 0 0 1-0.042667-1.408c0-47.274667 13.269333-86.186667 39.552-116.864 28.8-33.109333 68.48-49.322667 118.741333-49.322666 44.714667 0 80.938667 12.970667 108.544 39.125333 26.453333 24.917333 39.594667 58.624 39.594667 100.352 0 30.293333-9.386667 58.112-27.733333 82.389333-7.68 9.685333-24.234667 25.813333-54.229334 52.949334-14.506667 12.672-24.746667 24.490667-31.146666 35.285333-8.405333 14.506667-12.458667 29.269333-12.501334 45.141333l1.152 19.370667a11.178667 11.178667 0 0 1-11.178666 11.861333h-41.898667a11.178667 11.178667 0 0 1-11.221333-11.178666v-19.370667c0-21.162667 4.437333-40.917333 13.098666-58.197333 10.496-22.485333 32.213333-48.512 63.701334-75.989334 19.584-19.626667 25.728-25.941333 29.781333-31.018666 12.8-16.469333 19.029333-32.810667 19.029333-49.92 0-25.472-7.381333-45.568-21.418666-60.202667-14.762667-14.762667-36.352-22.144-65.578667-22.144-32.64 0-56.021333 10.496-72.106667 31.872-13.525333 16.938667-19.968 41.685333-19.968 75.861333a11.264 11.264 0 0 1-0.170666 2.005334zM512 763.648a32 32 0 1 1 0-64 32 32 0 0 1 0 64z" p-id="2067"></path></svg>