<?xml version="1.0" standalone="no"?><!DOCTYPE svg PUBLIC "-//W3C//DTD SVG 1.1//EN" "http://www.w3.org/Graphics/SVG/1.1/DTD/svg11.dtd"><svg t="1655103945768" class="icon" viewBox="0 0 1024 1024" version="1.1" xmlns="http://www.w3.org/2000/svg" p-id="3224" xmlns:xlink="http://www.w3.org/1999/xlink" width="100" height="100"><defs><style type="text/css">@font-face { font-family: feedback-iconfont; src: url("//at.alicdn.com/t/font_1031158_u69w8yhxdu.woff2?t=1630033759944") format("woff2"), url("//at.alicdn.com/t/font_1031158_u69w8yhxdu.woff?t=1630033759944") format("woff"), url("//at.alicdn.com/t/font_1031158_u69w8yhxdu.ttf?t=1630033759944") format("truetype"); }
</style></defs><path d="M512 64a448 448 0 1 1 0 896A448 448 0 0 1 512 64z m0 64a384 384 0 1 0 0 768A384 384 0 0 0 512 128zM282.624 611.2H351.36c35.52 60.416 82.112 96.128 160.64 96.128 73.92 0 117.888-27.072 155.008-84.928l6.848-11.2h67.52a246.208 246.208 0 0 1-453.76 11.84l-4.992-11.84H351.36z m387.2-251.264a48 48 0 1 1 0 96 48 48 0 0 1 0-96z m-315.2 0a48 48 0 1 1 0 96 48 48 0 0 1 0-96z" p-id="3225" fill=""></path></svg>