<?xml version="1.0" standalone="no"?><!DOCTYPE svg PUBLIC "-//W3C//DTD SVG 1.1//EN" "http://www.w3.org/Graphics/SVG/1.1/DTD/svg11.dtd"><svg t="1653043702110" class="icon" viewBox="0 0 1058 1024" version="1.1" xmlns="http://www.w3.org/2000/svg" p-id="9170" xmlns:xlink="http://www.w3.org/1999/xlink" width="103.3203125" height="100"><defs><style type="text/css">@font-face { font-family: feedback-iconfont; src: url("//at.alicdn.com/t/font_1031158_u69w8yhxdu.woff2?t=1630033759944") format("woff2"), url("//at.alicdn.com/t/font_1031158_u69w8yhxdu.woff?t=1630033759944") format("woff"), url("//at.alicdn.com/t/font_1031158_u69w8yhxdu.ttf?t=1630033759944") format("truetype"); }
</style></defs><path d="M242.036364 1014.690909c-6.206061 0-12.412121 0-18.618182-3.10303-15.515152-6.206061-27.927273-15.515152-37.236364-31.030303-6.206061-12.412121-9.309091-24.824242-6.20606-40.339394L229.624242 651.636364 21.721212 446.836364c-24.824242-24.824242-24.824242-62.060606 0-86.884849 9.309091-9.309091 21.721212-15.515152 34.133333-18.618182l288.581819-43.442424 130.327272-260.654545c6.206061-15.515152 18.618182-24.824242 37.236364-31.030303 15.515152-6.206061 31.030303-3.10303 46.545455 3.10303 12.412121 6.206061 21.721212 15.515152 27.927272 27.927273l130.327273 260.654545 288.581818 43.442424c34.133333 6.206061 55.854545 37.236364 52.751515 71.369697-3.10303 12.412121-9.309091 24.824242-18.618181 34.133334L831.612121 651.636364l49.648485 288.581818c3.10303 15.515152 0 34.133333-9.309091 46.545454s-24.824242 21.721212-40.339394 24.824243c-12.412121 3.10303-27.927273 0-40.339394-6.206061L527.515152 871.951515l-257.551516 136.533333c-9.309091 6.206061-18.618182 6.206061-27.927272 6.206061zM527.515152 71.369697l-142.739394 291.684848L62.060606 406.49697l232.727273 226.521212-55.854546 319.612121 288.581819-152.048485 288.581818 152.048485-55.854546-319.612121 232.727273-226.521212-319.612121-46.545455L527.515152 71.369697z" p-id="9171"></path></svg>