<?xml version="1.0" standalone="no"?><!DOCTYPE svg PUBLIC "-//W3C//DTD SVG 1.1//EN" "http://www.w3.org/Graphics/SVG/1.1/DTD/svg11.dtd"><svg t="1655103970170" class="icon" viewBox="0 0 1024 1024" version="1.1" xmlns="http://www.w3.org/2000/svg" p-id="3635" xmlns:xlink="http://www.w3.org/1999/xlink" width="100" height="100"><defs><style type="text/css">@font-face { font-family: feedback-iconfont; src: url("//at.alicdn.com/t/font_1031158_u69w8yhxdu.woff2?t=1630033759944") format("woff2"), url("//at.alicdn.com/t/font_1031158_u69w8yhxdu.woff?t=1630033759944") format("woff"), url("//at.alicdn.com/t/font_1031158_u69w8yhxdu.ttf?t=1630033759944") format("truetype"); }
</style></defs><path d="M512 983.466667C251.733333 983.466667 40.533333 772.266667 40.533333 512S251.733333 40.533333 512 40.533333 983.466667 251.733333 983.466667 512C981.333333 772.266667 772.266667 981.333333 512 983.466667z m0-878.933334C288 104.533333 104.533333 288 104.533333 512S288 919.466667 512 919.466667 919.466667 736 919.466667 512C917.333333 288 736 106.666667 512 104.533333z" p-id="3636"></path><path d="M704 768c-10.666667 0-21.333333-6.4-27.733333-14.933333-59.733333-91.733333-183.466667-117.333333-275.2-57.6-21.333333 14.933333-40.533333 34.133333-55.466667 55.466666-10.666667 14.933333-29.866667 19.2-44.8 8.533334-14.933333-10.666667-19.2-29.866667-8.533333-44.8 81.066667-119.466667 243.2-151.466667 364.8-70.4 29.866667 19.2 53.333333 44.8 72.533333 74.666666 10.666667 14.933333 6.4 34.133333-8.533333 44.8-4.266667 4.266667-10.666667 4.266667-17.066667 4.266667zM339.2 475.733333c-17.066667 0-32-14.933333-32-32v-72.533333c0-17.066667 14.933333-32 32-32s32 14.933333 32 32v72.533333c0 19.2-12.8 32-32 32zM684.8 475.733333c-17.066667 0-32-14.933333-32-32v-72.533333c0-17.066667 14.933333-32 32-32s32 14.933333 32 32v72.533333c0 19.2-14.933333 32-32 32z" p-id="3637"></path></svg>